<?xml version="1.0" standalone="no"?>
<!DOCTYPE svg PUBLIC "-//W3C//DTD SVG 20010904//EN"
 "http://www.w3.org/TR/2001/REC-SVG-20010904/DTD/svg10.dtd">
<svg version="1.0" xmlns="http://www.w3.org/2000/svg"
 width="446.000000pt" height="446.000000pt" viewBox="0 0 446.000000 446.000000"
 preserveAspectRatio="xMidYMid meet">
<metadata>
Created by potrace 1.14, written by Peter Selinger 2001-2017
</metadata>
<g transform="translate(0.000000,446.000000) scale(0.100000,-0.100000)"
fill="#000000" stroke="none">
<path d="M3016 4302 c-3 -5 1 -9 9 -9 8 0 12 4 9 9 -3 4 -7 8 -9 8 -2 0 -6 -4
-9 -8z"/>
<path d="M3420 4306 c0 -2 8 -10 18 -17 15 -13 16 -12 3 4 -13 16 -21 21 -21
13z"/>
<path d="M3473 4295 c0 -8 4 -12 9 -9 5 3 6 10 3 15 -9 13 -12 11 -12 -6z"/>
<path d="M3579 4293 c-13 -16 -12 -17 4 -4 9 7 17 15 17 17 0 8 -8 3 -21 -13z"/>
<path d="M2895 4280 c3 -5 8 -10 11 -10 2 0 4 5 4 10 0 6 -5 10 -11 10 -5 0
-7 -4 -4 -10z"/>
<path d="M3533 4279 c1 -6 -4 -14 -10 -16 -7 -3 -13 0 -13 6 0 6 -5 11 -11 11
-5 0 -7 -4 -4 -10 3 -5 1 -10 -4 -10 -6 0 -11 -4 -11 -8 0 -5 15 -8 33 -7 32
2 33 1 28 -24 -5 -24 -6 -25 -9 -3 -3 22 -21 31 -23 12 -1 -5 -2 -14 -3 -19 0
-5 -5 -13 -10 -18 -5 -4 -6 -3 -3 4 4 6 1 14 -5 16 -10 4 -10 6 0 6 20 2 14
17 -8 18 -13 1 -18 -2 -13 -10 5 -9 2 -8 -9 0 -8 7 -18 10 -21 6 -4 -3 -7 -4
-7 -1 0 3 8 12 17 19 14 12 16 12 8 0 -5 -10 -4 -12 3 -7 7 4 12 11 12 17 0
17 -20 9 -42 -16 -11 -13 -25 -22 -30 -19 -4 3 -8 0 -8 -5 0 -14 13 -14 28 1
9 9 12 9 12 -1 0 -7 5 -9 10 -6 6 3 10 1 10 -5 0 -7 -7 -10 -15 -6 -18 6 -47
-3 -41 -13 3 -4 -3 -20 -14 -35 l-18 -29 1 26 c1 14 4 24 7 22 3 -2 6 5 7 15
1 10 -5 21 -13 24 -8 3 -14 1 -14 -4 0 -6 5 -10 11 -10 5 0 7 -5 4 -11 -5 -7
-15 -5 -31 6 -13 8 -24 11 -24 5 0 -5 5 -10 11 -10 5 0 7 -5 3 -12 -5 -7 -11
-5 -21 7 -7 11 -13 15 -13 11 0 -4 9 -21 21 -37 11 -16 16 -29 10 -29 -14 0
-52 56 -43 65 4 5 1 5 -6 1 -7 -4 -10 -11 -7 -16 3 -4 2 -10 -2 -13 -5 -2 -2
-2 5 0 8 1 12 -3 9 -9 -2 -7 -11 -12 -21 -10 -9 2 -16 -2 -16 -8 0 -6 -5 -8
-12 -4 -7 4 -8 3 -4 -5 5 -8 12 -9 20 -2 7 6 17 6 26 1 8 -6 13 -10 10 -11 -3
0 -14 -2 -24 -4 -10 -2 -23 -10 -28 -17 -7 -10 -8 -8 -4 5 3 9 2 17 -2 17 -11
0 -34 58 -27 69 3 6 -3 8 -14 6 -11 -2 -22 3 -25 11 -3 9 -11 12 -18 8 -10 -6
-11 -4 0 7 15 16 16 29 1 29 -5 0 -7 -4 -4 -10 3 -5 -1 -10 -11 -10 -11 0 -15
6 -11 20 3 11 1 18 -4 14 -5 -3 -9 -13 -10 -22 0 -11 -3 -12 -6 -4 -6 15 -33
16 -33 1 0 -5 -4 -8 -9 -5 -5 3 -14 -1 -21 -9 -13 -15 -35 -11 -25 5 3 5 0 12
-6 16 -8 5 -9 3 -4 -6 6 -10 4 -12 -10 -6 -15 5 -16 4 -5 -9 12 -14 10 -20
-13 -41 -14 -13 -30 -24 -34 -24 -4 1 5 11 21 24 20 17 25 26 16 31 -9 6 -11
4 -6 -4 5 -8 3 -11 -7 -9 -9 2 -16 -1 -17 -7 -1 -5 -6 -15 -11 -22 -7 -8 -4
-15 8 -22 23 -13 8 -14 -17 -1 -12 6 -17 17 -14 32 4 21 4 21 -5 3 -6 -15 -3
-26 12 -42 11 -13 17 -23 13 -23 -5 0 -3 -7 4 -15 7 -9 10 -18 6 -22 -3 -3 -6
-1 -6 7 0 9 -3 10 -13 1 -8 -6 -17 -8 -20 -5 -3 4 -5 -3 -4 -15 1 -23 12 -28
21 -8 3 6 3 2 0 -10 -3 -15 -1 -23 8 -23 8 0 9 -3 3 -8 -16 -12 -16 -32 0 -32
8 0 15 -5 15 -10 0 -7 -6 -7 -19 -1 -10 6 -30 8 -45 5 -16 -3 -25 -1 -22 5 8
13 -4 41 -17 41 -7 0 -7 -4 1 -12 17 -17 15 -33 -3 -18 -9 7 -18 10 -22 7 -3
-4 2 -9 11 -13 9 -3 14 -9 11 -13 -2 -4 13 -8 33 -8 58 -1 64 -2 56 -14 -4 -7
1 -7 16 1 12 6 24 9 28 6 3 -3 0 -6 -5 -6 -12 0 -12 -18 0 -37 5 -7 -2 -19
-18 -29 -21 -14 -23 -19 -13 -33 12 -14 11 -14 -4 -2 -12 9 -18 10 -19 2 -1
-6 -3 -15 -4 -21 -1 -5 -3 -14 -4 -19 0 -6 -10 -9 -20 -8 -11 0 -17 5 -14 10
2 4 0 14 -7 22 -13 16 -43 8 -33 -9 4 -6 -2 -4 -12 4 -17 14 -18 13 -12 -2 3
-10 2 -20 -4 -23 -5 -4 -9 -3 -8 2 1 4 1 15 0 23 -1 13 -3 13 -12 0 -9 -12
-10 -12 -5 4 5 13 2 17 -9 12 -8 -3 -15 -2 -15 3 0 4 -7 8 -15 8 -11 0 -12 -4
-6 -10 12 -12 -4 -37 -22 -37 -6 0 -2 7 9 15 13 10 15 14 5 15 -8 0 -24 -8
-35 -17 -12 -10 -16 -11 -9 -4 15 18 -12 50 -29 33 -6 -6 -6 -12 3 -17 8 -6
10 -4 4 5 -5 9 -4 11 4 6 20 -13 2 -26 -23 -16 -16 6 -28 5 -36 -3 -10 -9 -11
-9 -6 1 4 7 1 12 -8 13 -9 1 -22 2 -28 3 -7 0 -13 6 -13 13 0 6 -4 15 -9 20
-5 4 -7 4 -3 -2 8 -14 -19 -48 -32 -40 -6 3 -17 3 -23 -2 -20 -12 -48 -14 -48
-4 0 6 9 8 20 6 12 -2 18 0 15 6 -4 5 -11 7 -16 4 -13 -9 -11 9 4 24 10 10 9
11 -4 6 -8 -3 -20 -18 -25 -33 -8 -23 -11 -25 -17 -9 -4 10 -3 16 1 13 4 -2 8
4 8 14 0 10 -6 16 -13 13 -7 -3 -11 -9 -10 -15 2 -10 -14 -16 -56 -20 -10 -1
-15 -8 -12 -16 3 -7 0 -10 -6 -7 -6 4 -8 13 -5 21 6 15 -19 44 -37 44 -6 0 -3
-6 7 -13 17 -12 17 -14 2 -20 -9 -4 -16 -3 -16 1 0 4 -9 13 -19 19 -19 12 -19
11 -3 -17 9 -15 20 -26 25 -23 5 3 4 -4 -2 -16 -7 -11 -14 -21 -17 -21 -3 0
-3 4 0 9 10 16 -6 42 -23 39 -9 -1 -22 1 -28 5 -8 5 -13 4 -13 -2 0 -6 -4 -11
-10 -11 -5 0 -9 3 -9 8 3 20 -2 25 -12 12 -9 -13 -10 -12 -5 2 3 10 -3 25 -12
35 -16 16 -16 17 0 10 10 -3 20 -1 24 5 4 7 3 8 -4 4 -7 -4 -12 -3 -12 3 0 6
-7 8 -15 5 -8 -4 -15 -14 -15 -23 0 -14 -2 -14 -10 -1 -7 10 -10 11 -11 3 -1
-7 -3 -17 -4 -23 -1 -5 -3 -13 -4 -16 0 -4 -9 0 -18 7 -15 12 -16 12 -10 -3 4
-12 2 -15 -9 -11 -15 5 -77 -50 -68 -60 3 -2 -3 -10 -13 -18 -11 -9 -14 -10
-9 -1 4 7 2 12 -5 12 -6 0 -9 -8 -6 -20 3 -11 2 -18 -3 -15 -4 3 -20 -5 -36
-17 -15 -13 -25 -18 -21 -11 4 6 0 14 -9 17 -8 3 -13 2 -10 -3 3 -5 -1 -11 -9
-15 -17 -6 -29 9 -20 27 4 6 -1 3 -9 -7 -12 -15 -16 -16 -16 -5 0 12 -2 12
-10 -1 -5 -8 -10 -10 -10 -5 0 6 -10 12 -22 12 -13 1 -24 7 -26 13 -2 5 -8 8
-13 4 -5 -3 -12 2 -15 10 -3 9 -13 16 -21 16 -8 0 -11 5 -8 10 3 6 -1 10 -9
10 -9 0 -16 5 -16 11 0 5 -4 7 -10 4 -5 -3 -10 -1 -10 5 0 6 -4 9 -9 6 -5 -3
-14 1 -20 8 -10 11 -19 12 -42 4 -16 -5 -26 -14 -23 -19 3 -5 -2 -6 -10 -3 -9
3 -16 1 -16 -5 0 -12 -49 -16 -51 -3 -5 40 -4 60 3 56 4 -3 5 -10 2 -16 -4 -7
-2 -8 4 -4 9 5 9 13 2 26 -13 24 -13 33 1 24 8 -5 8 -1 0 14 -6 12 -7 23 -2
26 11 7 9 25 -3 45 -7 10 -6 12 4 6 10 -6 12 -4 7 9 -4 10 -7 20 -7 22 0 3 -6
2 -12 -2 -9 -6 -9 -3 0 9 12 14 11 16 -7 12 -13 -2 -19 0 -15 6 10 17 12 59 2
53 -5 -3 -7 -12 -4 -19 2 -7 -1 -16 -9 -19 -9 -3 -12 0 -8 10 4 12 -7 19 -29
15 -4 0 -5 6 -1 15 5 13 7 13 14 2 5 -7 9 -8 9 -2 0 21 -13 23 -39 6 -24 -15
-25 -15 -13 0 8 10 9 19 3 22 -5 4 -13 2 -16 -4 -5 -8 -12 -7 -23 2 -13 11
-14 11 -7 -1 6 -10 4 -13 -6 -9 -8 3 -23 0 -34 -8 -13 -10 -22 -11 -32 -3 -10
9 -17 4 -30 -20 -10 -17 -24 -31 -30 -31 -7 0 -14 -4 -14 -10 -1 -5 -2 -14 -3
-19 0 -5 -5 -13 -10 -18 -5 -5 -6 -2 -2 7 4 8 -2 4 -13 -10 -16 -20 -23 -22
-30 -11 -6 9 -11 10 -15 2 -5 -7 -15 -7 -32 -1 -14 6 -23 6 -20 1 3 -4 -6 -14
-19 -21 -13 -7 -22 -18 -18 -23 3 -6 1 -7 -6 -3 -6 4 -8 13 -4 19 4 8 1 7 -9
-1 -13 -10 -17 -10 -22 0 -3 7 -4 4 -3 -7 1 -12 -3 -19 -11 -17 -8 1 -11 -2
-7 -8 3 -6 10 -8 14 -6 4 3 13 0 21 -6 12 -8 12 -9 -3 -4 -9 3 -17 1 -17 -4 0
-5 -7 -7 -15 -3 -9 3 -15 2 -13 -3 4 -12 -39 -54 -46 -46 -3 3 -7 0 -7 -6 -1
-7 -3 -16 -4 -22 -1 -5 -3 -15 -4 -21 0 -5 -6 -7 -13 -3 -8 5 -9 0 -5 -15 5
-19 3 -21 -11 -9 -9 7 -14 8 -10 4 4 -5 3 -15 -4 -23 -8 -10 -8 -12 4 -8 17 7
21 -23 5 -42 -12 -16 5 -17 20 -2 8 8 13 7 18 -2 5 -7 4 -10 -3 -5 -11 6 -25
-9 -28 -31 -1 -6 5 -9 13 -6 12 5 12 7 1 14 -9 6 -10 9 -1 9 7 0 22 -14 35
-30 12 -17 28 -28 35 -26 7 3 15 1 18 -4 6 -9 24 -8 40 2 6 4 17 3 25 -3 11
-6 12 -9 2 -9 -7 0 -11 -4 -8 -8 3 -5 -7 -8 -22 -6 -15 1 -27 3 -27 4 0 1 -24
4 -53 6 -37 2 -51 0 -46 -8 4 -7 3 -8 -4 -4 -6 4 -8 14 -5 23 4 11 3 14 -5 9
-7 -4 -12 -14 -12 -22 0 -8 -5 -12 -10 -9 -6 4 -8 11 -4 16 8 13 16 65 9 58
-3 -4 -7 -16 -10 -28 -6 -31 -15 -42 -27 -35 -7 4 -8 2 -4 -5 4 -6 13 -8 19
-4 7 3 3 -3 -7 -15 -16 -18 -22 -20 -34 -9 -13 11 -14 9 -2 -13 l13 -25 -23
20 c-13 11 -20 14 -14 5 5 -8 9 -19 9 -25 0 -5 5 -10 12 -10 6 0 14 -3 17 -8
3 -4 3 -5 -1 -2 -3 3 -12 0 -20 -6 -10 -9 -10 -15 -2 -25 8 -10 8 -14 1 -14
-6 0 -9 -7 -6 -15 4 -8 9 -13 13 -10 4 2 8 -3 8 -11 0 -10 -4 -11 -11 -4 -5 5
-14 10 -19 10 -5 0 -2 -7 7 -15 8 -8 20 -15 26 -15 6 0 8 -5 4 -12 -5 -8 -2
-9 11 -4 18 7 18 6 0 -14 -10 -11 -15 -23 -12 -27 4 -3 7 -1 7 5 0 6 10 16 21
23 15 8 19 8 15 0 -4 -6 0 -12 8 -12 37 -3 41 -5 40 -21 -1 -10 4 -14 12 -11
8 3 11 10 7 17 -4 7 -1 7 9 -1 8 -7 18 -10 21 -6 4 3 13 0 21 -6 10 -8 16 -9
21 -1 4 7 12 7 26 0 14 -8 19 -7 19 2 0 9 3 9 9 -2 6 -8 8 -17 5 -21 -2 -5 4
-6 15 -4 11 2 25 -3 32 -11 15 -18 -11 -20 -30 -1 -10 8 -12 8 -7 0 4 -7 -1
-11 -14 -10 -10 1 -22 7 -25 15 -2 7 -1 10 4 7 5 -3 12 -2 15 3 2 4 -4 9 -15
9 -20 2 -26 -21 -9 -32 12 -7 4 -25 -11 -25 -6 0 -8 4 -5 8 3 5 -4 16 -15 25
-10 9 -19 12 -19 7 0 -6 6 -13 13 -16 7 -2 13 -13 14 -23 1 -13 -5 -17 -25
-16 -15 1 -31 4 -37 6 -5 2 -11 0 -12 -4 -1 -5 -10 -16 -20 -24 -14 -12 -12
-12 9 1 37 22 48 20 19 -4 -13 -11 -18 -20 -12 -20 7 0 9 -5 5 -12 -4 -7 -3
-8 4 -4 7 4 12 2 12 -4 0 -6 -7 -13 -16 -17 -12 -5 -11 -9 10 -22 21 -14 23
-20 13 -31 -10 -12 -9 -12 6 0 16 11 16 16 5 24 -17 14 -17 61 0 78 11 11 12
8 8 -15 -3 -16 -3 -34 0 -41 5 -14 41 -19 49 -5 4 5 -2 6 -12 2 -15 -6 -16 -4
-5 9 11 14 10 17 -9 23 -17 6 -19 9 -8 16 20 13 31 11 23 -3 -5 -8 0 -7 11 2
17 14 18 13 12 -2 -3 -10 -3 -20 2 -22 10 -7 8 55 -2 72 -13 20 8 14 28 -8 10
-11 13 -20 8 -20 -6 0 -10 -11 -10 -24 0 -19 2 -22 12 -13 8 8 9 14 3 18 -7 4
-6 9 1 13 6 4 9 11 6 16 -3 4 1 10 9 13 8 3 18 -4 24 -17 5 -13 17 -23 26 -23
8 0 13 4 10 9 -3 5 -10 5 -16 2 -8 -5 -9 -1 -5 10 4 10 3 15 -3 11 -10 -6 -15
10 -10 30 1 6 3 16 3 23 0 8 8 10 21 6 19 -6 20 -5 6 11 -14 18 -14 18 11 2
14 -10 29 -14 32 -10 4 3 7 1 7 -6 0 -8 -6 -11 -16 -7 -9 4 -13 2 -8 -5 4 -8
-1 -9 -17 -4 -13 4 -21 4 -17 0 11 -11 68 -14 62 -3 -3 4 2 11 11 14 13 5 13
9 3 23 -12 14 -11 15 4 2 19 -14 26 -47 8 -36 -6 3 -10 1 -10 -4 0 -12 13 -14
24 -4 11 11 48 14 41 3 -3 -5 -1 -10 5 -10 7 0 9 7 6 16 -3 9 -6 18 -6 21 0 3
-6 0 -14 -6 -8 -7 -17 -8 -20 -3 -3 6 1 15 8 21 10 8 16 9 21 1 3 -6 11 -7 17
-4 7 5 8 2 3 -6 -5 -8 -4 -11 3 -6 5 3 12 3 15 -1 2 -5 2 -1 0 7 -8 29 -8 33
6 38 9 3 12 0 8 -10 -3 -8 4 -23 15 -33 19 -16 21 -16 15 0 -5 11 -3 15 5 13
7 -3 13 -13 13 -24 0 -14 7 -19 27 -18 16 1 28 -3 28 -8 0 -5 8 -7 18 -4 12 4
19 1 19 -8 0 -8 -6 -12 -14 -9 -9 4 -11 0 -7 -11 3 -9 9 -14 13 -11 4 2 8 -2
8 -9 0 -9 -7 -12 -16 -8 -13 5 -14 3 -3 -10 10 -12 9 -18 -3 -28 -8 -7 -15 -9
-15 -5 0 4 -7 1 -17 -6 -14 -12 -16 -12 -11 1 3 8 12 14 20 14 8 -1 15 4 15
11 0 7 -6 11 -14 8 -7 -3 -13 0 -13 6 0 6 7 11 15 11 18 0 19 9 4 30 -9 12
-10 12 -5 -3 4 -12 2 -17 -6 -14 -7 2 -12 11 -10 21 2 9 -2 16 -8 16 -5 0 -9
-3 -9 -7 3 -20 -2 -34 -10 -29 -5 3 -11 -1 -15 -9 -7 -19 3 -47 15 -39 5 3 9
-4 9 -16 0 -17 5 -19 29 -15 19 3 33 0 41 -10 11 -13 10 -14 -5 -9 -12 5 -16
4 -11 -4 3 -6 3 -13 -2 -16 -13 -8 -14 -76 0 -76 9 0 9 -3 0 -12 -17 -17 -15
-33 2 -19 10 8 16 9 21 1 4 -6 1 -9 -6 -8 -6 2 -14 -3 -16 -10 -3 -8 1 -10 14
-5 19 7 18 5 -9 -15 -12 -10 -18 -10 -24 -1 -5 8 -3 10 7 4 12 -7 12 -6 0 6
-10 11 -15 11 -18 1 -3 -6 -10 -9 -16 -5 -6 3 -3 -4 6 -17 15 -22 15 -26 1
-41 -19 -21 -3 -34 25 -19 28 15 35 12 17 -6 -9 -9 -24 -17 -34 -18 -18 -3
-31 -36 -13 -36 6 0 8 6 5 13 -3 8 4 13 17 14 20 2 20 1 4 -24 -10 -14 -13
-23 -7 -19 9 5 54 -26 49 -35 -1 -2 0 -3 2 -1 3 1 6 9 7 17 1 9 -2 12 -8 9 -7
-4 -8 -2 -4 5 4 6 4 11 -1 10 -27 -5 -33 2 -23 21 6 11 16 20 22 20 7 0 6 -5
-2 -15 -14 -17 0 -21 16 -5 7 7 17 3 30 -12 l19 -23 -22 18 c-13 11 -23 14
-27 8 -4 -5 2 -14 11 -20 11 -6 13 -11 5 -11 -7 0 -11 -4 -8 -9 9 -14 -5 -42
-18 -34 -6 3 -7 2 -3 -3 5 -5 12 -9 15 -9 23 -2 51 -18 47 -26 -4 -5 1 -9 9
-9 19 0 21 -16 4 -26 -7 -5 -8 -3 -3 6 5 8 4 11 -3 6 -6 -3 -13 2 -17 13 -4
14 -15 19 -36 19 -17 -1 -25 -4 -18 -8 8 -6 8 -9 -2 -12 -8 -3 -10 -9 -6 -14
5 -5 13 -1 18 9 6 9 15 17 20 17 6 0 7 -5 3 -12 -4 -6 -3 -8 2 -5 6 3 15 -3
22 -14 7 -11 8 -19 2 -19 -5 0 -10 -5 -10 -11 0 -8 4 -8 14 0 15 12 49 4 40
-10 -2 -5 1 -19 8 -31 6 -13 13 -32 15 -43 2 -10 7 -22 11 -25 11 -7 9 -56 -2
-67 -6 -5 -6 -2 -1 7 5 8 5 12 0 8 -4 -4 -15 -2 -24 5 -14 10 -14 10 -4 -4 7
-9 9 -20 5 -24 -4 -5 -1 -5 6 -1 6 4 12 2 12 -3 0 -6 -5 -11 -12 -11 -6 0 -8
-3 -5 -6 4 -4 13 -1 22 6 9 8 15 8 15 2 0 -6 -5 -14 -11 -17 -6 -4 -8 -13 -5
-20 5 -15 -20 -28 -37 -19 -7 3 -4 -1 5 -9 10 -8 14 -18 10 -22 -4 -5 -1 -5 6
-1 7 4 9 12 6 18 -4 7 -2 8 4 4 6 -4 9 -13 5 -21 -3 -9 1 -23 8 -33 13 -16 12
-16 -4 -3 -15 12 -20 12 -27 2 -11 -18 0 -52 14 -44 6 3 4 -2 -5 -13 -31 -37
-33 -47 -6 -29 20 13 27 13 33 3 4 -7 4 -10 -1 -6 -11 10 -44 -9 -41 -24 1 -7
6 -20 11 -28 7 -12 6 -13 -6 -3 -11 9 -16 7 -26 -13 -6 -13 -7 -22 -2 -18 5 3
9 1 9 -5 0 -5 -6 -12 -12 -14 -10 -4 -10 -6 0 -6 6 -1 12 -6 12 -12 0 -5 -4
-8 -9 -4 -6 3 -9 -3 -9 -12 0 -10 0 -22 -2 -28 -5 -19 0 -36 8 -31 11 7 8 -31
-3 -41 -4 -5 -5 -3 -1 4 8 14 -10 28 -18 14 -4 -5 -2 -12 4 -16 6 -4 7 -11 4
-17 -4 -6 -3 -8 2 -5 6 3 16 2 24 -4 13 -7 12 -9 -2 -9 -20 0 -25 -30 -5 -30
8 0 7 -4 -3 -10 -13 -9 -11 -13 10 -31 18 -15 20 -19 6 -15 -14 5 -17 2 -12
-10 3 -9 3 -21 -1 -27 -10 -17 -12 -59 -3 -76 6 -10 8 -10 13 3 4 10 3 14 -3
11 -5 -3 -8 3 -7 14 1 19 20 22 34 6 4 -4 2 -5 -4 -1 -19 11 -16 -10 5 -30 15
-16 15 -17 0 -12 -10 4 -19 1 -22 -9 -4 -10 -2 -14 8 -10 11 4 13 1 9 -10 -4
-10 -2 -14 4 -10 6 4 8 -4 5 -21 -2 -15 -5 -39 -6 -54 0 -14 -4 -24 -8 -21 -5
2 -8 2 -8 -2 0 -3 10 -10 23 -15 l22 -9 -22 0 c-24 -1 -30 -15 -12 -27 8 -5 8
-9 -1 -14 -9 -6 -9 -13 -1 -29 15 -28 -2 -27 -23 2 -16 22 -16 22 -6 0 7 -14
7 -24 0 -28 -5 -3 -10 -12 -10 -18 0 -7 5 -4 11 6 8 14 14 15 30 6 16 -8 18
-14 9 -24 -8 -9 -8 -15 0 -20 9 -6 14 1 11 18 0 4 3 7 9 7 11 0 9 -28 -3 -47
-5 -8 -3 -13 5 -13 10 0 9 -3 -2 -9 -20 -13 -34 -2 -19 15 6 8 8 14 3 15 -63
5 -70 4 -69 -16 1 -11 9 -21 17 -23 15 -3 25 -18 49 -79 7 -17 17 -29 23 -26
5 3 6 1 2 -6 -4 -6 -11 -9 -16 -6 -4 3 -13 -2 -20 -10 -6 -7 -19 -11 -28 -8
-13 4 -12 2 3 -10 17 -13 21 -13 33 2 11 14 12 13 2 -7 -6 -12 -15 -20 -21
-17 -5 4 -9 2 -9 -3 0 -5 10 -14 23 -21 l22 -11 -23 6 c-22 5 -28 -13 -9 -27
5 -3 1 -9 -8 -12 -9 -4 -13 -3 -10 3 3 6 1 10 -4 10 -6 0 -11 5 -11 11 0 5 4
8 8 5 5 -3 9 1 9 9 0 8 -5 15 -10 15 -5 0 -3 8 4 18 7 9 9 14 5 10 -5 -4 -15
-3 -23 3 -9 9 -13 8 -13 0 0 -6 3 -11 8 -11 4 0 8 -27 8 -60 1 -33 -2 -58 -6
-55 -4 2 -7 -2 -7 -10 0 -8 4 -12 8 -9 4 2 8 -5 8 -16 1 -11 1 -29 2 -41 0
-14 5 -19 15 -15 12 4 14 1 9 -15 -5 -14 -3 -20 7 -18 27 3 37 -1 32 -16 -7
-18 -25 -20 -20 -3 1 7 1 10 -1 5 -3 -4 -9 -5 -14 -1 -5 3 -9 0 -9 -6 0 -6 -4
-9 -9 -6 -4 3 -13 -5 -19 -18 -14 -30 6 -41 43 -24 19 9 22 14 13 20 -10 8
-10 9 1 6 8 -2 15 -11 17 -20 1 -10 -3 -15 -11 -12 -8 4 -11 -3 -10 -20 3 -27
-9 -43 -19 -27 -4 5 -2 12 4 16 5 3 10 12 10 18 0 8 -3 8 -8 2 -9 -13 -55 -18
-47 -5 3 6 2 10 -3 10 -6 0 -12 -7 -16 -15 -3 -8 -2 -14 2 -14 18 3 31 -2 52
-21 26 -23 14 -27 -16 -5 -25 19 -43 19 -18 0 19 -15 19 -16 -1 -13 -12 2 -20
-3 -21 -15 -1 -12 0 -13 3 -2 3 12 9 13 25 4 16 -9 19 -8 13 2 -5 8 -4 10 3 5
7 -4 8 -15 3 -29 -4 -12 -6 -27 -4 -34 2 -6 -1 -14 -6 -18 -7 -4 -8 0 -5 10 4
9 3 15 -2 14 -5 -1 -16 -1 -24 0 -13 1 -13 3 0 10 8 6 18 7 22 5 9 -6 11 10 2
19 -9 9 -43 -25 -37 -38 2 -7 -1 -16 -8 -21 -7 -4 -10 -3 -5 4 8 13 -20 10
-31 -4 -4 -5 -4 -6 1 -2 5 4 15 3 23 -3 8 -7 18 -8 26 -3 7 5 -1 -3 -18 -18
-25 -23 -28 -29 -15 -38 8 -5 19 -10 24 -10 5 0 7 -3 4 -6 -4 -3 -18 1 -32 8
l-26 14 20 22 c17 18 18 22 5 22 -8 0 -15 -5 -15 -11 0 -5 -5 -7 -10 -4 -6 4
-8 11 -5 16 4 5 2 9 -4 9 -5 0 -9 -9 -8 -19 0 -11 4 -18 8 -15 4 2 7 -5 6 -16
-1 -11 -9 -23 -19 -26 -19 -6 -25 -24 -7 -24 5 0 7 -5 4 -10 -4 -6 -10 -8 -15
-5 -5 3 -11 1 -15 -5 -4 -6 -10 -8 -15 -5 -5 3 -11 1 -15 -4 -3 -6 4 -8 15 -6
12 2 23 -2 27 -10 3 -8 10 -12 17 -8 6 4 5 -1 -3 -10 -7 -9 -17 -15 -21 -12
-5 3 -11 1 -15 -5 -4 -6 -11 -8 -16 -4 -16 9 0 23 23 19 11 -3 18 -1 14 2 -14
14 -37 11 -49 -7 -9 -15 -14 -17 -26 -7 -12 10 -13 9 -2 -11 6 -12 8 -22 4
-21 -22 4 -34 -2 -27 -13 5 -10 4 -10 -6 -1 -11 10 -16 9 -26 -5 -8 -9 -13
-12 -14 -7 0 18 16 36 30 33 7 -2 14 3 16 10 1 7 0 8 -2 3 -3 -6 -12 -7 -20
-4 -7 3 -16 -2 -20 -10 -3 -9 -13 -13 -22 -10 -10 3 -13 1 -7 -4 17 -14 15
-30 -5 -48 -12 -11 -20 -13 -20 -7 0 7 4 12 9 12 5 0 8 8 7 17 -3 18 -33 27
-42 12 -3 -5 0 -8 8 -7 7 2 11 -4 9 -12 -2 -8 -4 -20 -4 -25 0 -6 -8 -11 -18
-11 -10 0 -16 4 -13 7 2 4 0 10 -6 14 -6 3 -10 -4 -11 -17 0 -13 -3 -17 -6
-10 -2 6 -9 12 -14 12 -6 0 -7 -4 -4 -10 3 -5 1 -11 -4 -11 -14 -2 -29 -6 -36
-9 -3 -1 -9 -3 -14 -4 -5 0 -13 -4 -17 -9 -4 -4 -12 -7 -18 -7 -6 0 -4 4 4 10
10 6 4 8 -22 7 -20 -1 -34 -5 -32 -9 2 -4 0 -9 -6 -13 -5 -3 -10 -1 -10 4 0 6
-5 11 -11 11 -5 0 -7 -4 -4 -10 3 -5 -3 -10 -14 -10 -12 0 -21 -5 -21 -10 0
-7 -7 -7 -21 1 -14 7 -19 7 -15 0 4 -5 -4 -15 -16 -22 -22 -12 -22 -11 -8 6
14 17 14 17 -7 5 -12 -8 -20 -18 -17 -22 3 -4 -2 -5 -10 -2 -9 3 -14 9 -11 13
2 4 -2 8 -10 8 -12 0 -12 -4 2 -21 18 -20 18 -20 -9 -3 -15 9 -29 13 -33 8 -6
-10 -24 -9 -43 3 -11 7 -11 4 -1 -13 10 -14 15 -17 21 -8 5 8 8 7 8 -5 0 -10
-7 -16 -19 -15 -11 0 -17 5 -15 9 3 4 1 8 -4 8 -5 0 -14 -10 -21 -22 l-11 -23
6 23 c3 12 1 22 -5 22 -6 0 -11 -7 -11 -15 0 -14 -10 -18 -27 -12 -5 1 -7 9
-5 17 2 12 1 12 -6 1 -7 -9 -11 -10 -13 -2 -2 6 -10 1 -18 -11 -13 -21 -13
-22 1 -10 13 10 17 10 21 -2 4 -9 1 -18 -5 -22 -7 -4 -8 -3 -4 4 5 8 0 11 -13
9 -23 -4 -41 -17 -23 -17 7 0 12 -4 12 -10 0 -5 -5 -9 -11 -7 -6 1 -13 -8 -15
-21 -4 -20 -2 -22 19 -12 20 10 20 10 5 -3 -10 -8 -18 -20 -18 -27 0 -10 3
-10 16 1 20 16 44 20 44 7 0 -5 -6 -8 -12 -5 -7 2 -21 -2 -30 -10 -14 -13 -19
-12 -37 6 -11 11 -22 17 -24 13 -2 -4 -2 -1 0 6 1 7 -2 23 -8 34 -9 16 -7 24
6 37 16 15 17 15 11 -6 -5 -17 -3 -21 11 -18 10 2 20 4 23 4 3 1 -2 6 -10 11
-13 8 -13 11 -1 22 10 10 12 10 7 1 -13 -24 2 -13 19 13 l16 25 -24 -15 c-13
-9 -26 -14 -29 -11 -3 3 -16 -5 -29 -19 -12 -13 -29 -22 -36 -19 -7 3 -13 0
-13 -6 0 -6 3 -10 8 -10 21 4 32 -3 32 -17 0 -14 -2 -15 -17 -3 -15 11 -15 10
1 -8 15 -18 16 -26 7 -37 -10 -12 -8 -16 9 -21 11 -3 18 -11 15 -16 -3 -5 2
-6 12 -2 15 5 16 3 6 -8 -7 -7 -13 -18 -13 -24 0 -5 5 -2 11 7 5 10 15 18 20
18 6 0 7 -5 3 -12 -5 -7 -3 -8 6 -3 9 6 12 4 8 -6 -4 -9 2 -14 19 -15 22 -2
23 -1 6 12 -17 14 -17 14 2 12 11 -2 23 -7 27 -13 5 -6 8 -5 8 3 0 6 8 12 17
12 13 0 14 -3 5 -12 -7 -7 -12 -16 -12 -22 0 -5 6 -1 14 10 13 17 13 22 -1 44
-13 20 -14 23 -2 13 12 -10 18 -10 29 0 12 10 12 9 2 -4 -9 -12 -9 -23 -2 -40
10 -23 10 -23 6 -2 -2 13 1 26 6 30 7 3 8 1 4 -5 -4 -7 -1 -12 8 -12 10 0 13
6 10 18 -5 16 -5 16 6 -1 6 -9 15 -15 20 -12 5 3 19 1 31 -6 17 -9 20 -8 14 2
-6 9 -3 10 10 6 9 -4 24 -2 31 4 8 6 14 7 14 2 0 -5 13 -9 29 -9 17 0 28 3 25
8 -8 12 10 10 24 -4 12 -12 13 -11 16 15 1 6 11 11 23 11 13 -1 20 3 17 8 -3
5 0 9 7 7 34 -4 41 1 36 28 -5 25 -4 26 8 9 8 -10 11 -25 9 -34 -5 -14 -4 -14
6 1 6 9 18 17 26 17 8 0 13 4 9 9 -3 5 0 13 6 17 8 4 9 3 5 -4 -4 -7 -2 -12 5
-12 9 0 9 -3 0 -14 -9 -11 -9 -16 0 -22 7 -4 9 -3 6 3 -4 6 1 17 10 24 15 12
16 12 10 -6 -6 -17 -5 -18 5 -4 7 9 19 14 26 12 6 -3 12 1 12 7 0 7 -8 10 -19
7 -10 -2 -24 -1 -31 3 -7 4 -1 7 15 7 15 0 31 6 35 12 8 14 31 11 42 -4 5 -6
8 -5 8 3 0 6 5 12 11 12 5 0 7 -5 3 -12 -4 -7 -3 -8 4 -4 9 5 7 14 -4 31 -15
23 -15 24 5 20 12 -2 25 3 32 13 10 16 10 16 5 0 -5 -17 5 -23 28 -19 5 1 6
-4 3 -11 -3 -8 2 -14 14 -14 13 0 15 4 8 12 -6 8 -6 14 0 18 5 3 12 0 14 -6 4
-8 6 -7 6 4 1 11 -6 16 -18 15 -11 0 -18 -4 -16 -7 2 -4 -2 -7 -10 -7 -34 0
-2 29 35 31 8 1 14 8 12 16 -3 13 -1 13 10 1 11 -11 11 -14 0 -18 -9 -4 -6 -9
10 -17 12 -6 23 -18 23 -25 0 -8 7 -16 15 -18 13 -4 13 -3 0 6 -8 6 -11 11 -6
11 5 0 3 7 -4 15 -12 14 -6 35 10 35 5 0 7 -8 4 -17 -5 -17 -5 -17 9 -1 8 10
17 15 21 11 4 -4 4 1 0 11 -5 13 -4 17 4 12 6 -4 21 -2 32 4 14 8 20 8 20 0 0
-6 -10 -15 -22 -20 l-23 -9 23 0 c12 -1 22 4 22 10 0 5 4 7 10 4 5 -3 7 0 4 9
-3 9 3 19 16 26 11 6 18 15 15 19 -2 5 2 14 10 21 10 9 15 9 15 1 0 -6 -5 -11
-11 -11 -5 0 -7 -5 -4 -10 10 -17 35 8 28 28 -4 14 -3 15 5 2 8 -10 8 -18 0
-27 -7 -9 -7 -13 0 -13 6 0 14 5 17 10 4 6 12 10 18 9 25 -3 38 1 32 11 -3 6
-1 10 5 10 7 0 9 -8 4 -22 -6 -22 -6 -22 13 -6 15 14 22 15 32 5 10 -9 11 -8
6 6 -4 10 -2 17 5 17 6 0 9 -4 6 -9 -3 -5 6 -9 21 -9 26 0 26 1 7 16 -16 12
-16 14 -1 9 9 -4 17 -2 17 3 0 6 5 10 11 10 8 0 9 -4 0 -13 -6 -8 -8 -17 -4
-20 3 -4 11 1 18 10 19 26 44 25 37 -1 -5 -18 -7 -18 -10 -3 -2 9 -8 15 -13
11 -5 -3 -7 -10 -4 -15 4 -5 1 -9 -4 -9 -19 0 -26 -2 -45 -12 -14 -8 -17 -7
-10 4 6 10 5 11 -7 1 -9 -7 -25 -11 -38 -8 -12 2 -19 0 -16 -5 3 -5 -4 -7 -15
-5 -13 3 -18 0 -14 -7 4 -7 2 -8 -5 -4 -6 4 -9 11 -7 15 3 4 -5 8 -17 8 -15 2
-18 0 -8 -6 9 -6 10 -11 2 -15 -6 -4 -11 -2 -11 4 0 8 -6 8 -20 0 -11 -6 -20
-8 -20 -4 0 3 -8 0 -17 -7 -15 -12 -16 -12 -8 1 6 11 5 12 -4 4 -13 -12 -5
-44 11 -44 5 0 7 -4 3 -9 -10 -17 12 -21 25 -6 9 11 10 18 1 28 -12 16 -5 27
18 27 11 0 12 -3 4 -8 -8 -5 -9 -13 -3 -22 8 -13 10 -13 10 2 0 18 32 18 38 0
2 -7 8 -12 14 -12 6 0 6 6 -2 15 -8 10 -9 15 -2 15 6 0 16 -8 21 -17 6 -10 11
-12 11 -5 0 6 4 12 10 12 5 0 8 -6 6 -12 -1 -7 -1 -10 1 -5 3 4 10 4 16 0 7
-4 5 2 -3 12 -14 17 -13 18 5 12 19 -7 19 -6 2 7 -13 10 -15 15 -5 19 7 2 18
-5 25 -17 11 -20 12 -20 18 7 6 22 10 25 21 16 11 -9 18 -8 32 5 22 19 39 22
25 4 -12 -15 -13 -49 -2 -42 5 2 6 11 3 18 -6 17 22 41 31 26 3 -5 1 -10 -6
-10 -7 0 -10 -2 -7 -5 3 -3 13 -2 22 1 14 5 15 9 4 16 -9 7 -4 8 14 4 22 -5
26 -3 22 9 -4 8 -1 15 6 15 6 0 8 -5 4 -11 -4 -8 1 -9 17 -4 17 4 20 3 10 -3
-9 -7 -10 -12 -2 -16 6 -4 9 -11 6 -16 -8 -12 25 -28 53 -25 13 1 26 -4 29
-12 3 -7 9 -13 15 -13 5 0 6 5 3 10 -3 6 1 10 10 10 10 0 13 -5 9 -12 -5 -9
-2 -9 9 1 20 16 23 2 5 -18 -10 -11 -10 -13 0 -7 13 8 16 -4 5 -20 -5 -5 2 2
15 16 23 24 23 24 17 3 -4 -14 -2 -23 5 -23 6 0 8 5 4 11 -4 7 1 9 12 7 11 -2
18 -11 16 -21 -2 -9 1 -17 7 -17 10 0 9 25 -2 36 -15 15 -6 24 12 12 11 -7 17
-17 14 -23 -4 -5 -2 -6 2 -2 17 14 14 36 -3 30 -15 -5 -15 -4 0 8 10 8 25 23
34 34 8 11 12 14 9 7 -14 -26 -16 -70 -4 -78 9 -5 10 -2 6 9 -3 9 -2 19 3 22
5 3 6 13 3 23 -4 13 -2 13 10 -3 15 -17 18 -18 28 -5 9 13 10 12 5 -2 -3 -10
-1 -20 4 -23 6 -4 10 0 10 7 0 8 4 7 11 -4 5 -9 16 -15 24 -12 8 4 13 9 10 13
-2 4 2 8 10 8 10 0 12 -4 5 -12 -5 -7 -7 -15 -3 -19 4 -4 -1 -4 -11 0 -14 5
-17 4 -12 -4 11 -19 26 -14 38 13 6 14 15 25 20 25 5 0 7 -4 4 -8 -2 -4 -1
-14 4 -22 7 -11 11 -11 24 -1 9 8 16 10 16 5 0 -5 5 -2 10 6 8 13 10 12 10 -2
0 -10 -4 -19 -10 -19 -5 -1 -14 -2 -20 -3 -11 -1 -14 -11 -7 -29 4 -9 6 -9 6
1 1 6 6 12 12 12 5 0 8 -4 5 -9 -7 -11 21 -8 31 4 4 4 3 5 -4 1 -6 -3 -14 -2
-18 4 -3 5 1 10 9 10 10 0 13 6 10 18 -4 10 -3 13 3 6 9 -12 41 -12 61 0 6 4
12 4 12 0 0 -4 6 0 13 9 9 13 16 14 27 6 12 -9 12 -10 -3 -5 -12 4 -17 2 -15
-6 5 -15 38 -19 38 -5 0 7 5 6 10 -3 9 -13 11 -13 20 0 8 12 10 12 10 1 0 -11
3 -11 18 0 15 13 16 12 3 -3 -7 -10 -18 -15 -25 -11 -6 3 -6 0 2 -8 9 -10 15
-10 24 -1 17 17 33 15 19 -2 -10 -12 -8 -13 8 -9 12 3 19 9 16 13 -3 5 0 12 6
16 7 4 9 3 6 -3 -4 -5 3 -20 14 -31 27 -30 35 -28 14 4 -9 14 -14 28 -11 32 3
3 6 0 6 -7 0 -7 5 -9 12 -5 6 4 8 3 5 -3 -7 -12 41 -12 59 -1 6 4 11 1 11 -7
0 -8 -4 -12 -9 -9 -4 3 -8 1 -8 -4 0 -5 -7 -9 -15 -9 -8 0 -12 4 -9 9 3 4 0 8
-5 8 -6 0 -11 -7 -11 -15 0 -10 7 -15 18 -13 10 2 16 -2 14 -10 -1 -8 2 -11 8
-7 6 3 8 11 5 16 -4 5 7 9 24 9 16 0 31 -6 34 -12 3 -10 7 -10 19 0 10 8 19 9
22 3 7 -11 32 -9 43 4 4 4 2 5 -4 1 -7 -4 -13 -3 -13 3 0 5 6 12 13 15 6 3 3
4 -7 3 -10 -1 -21 4 -23 11 -3 7 1 10 10 6 11 -4 25 8 43 35 14 22 30 38 35
35 5 -3 9 -7 9 -10 0 -3 -4 -2 -10 1 -5 3 -10 1 -10 -5 0 -18 23 -6 26 13 1
11 -5 17 -17 17 -10 0 -19 7 -19 15 0 8 -5 15 -11 15 -5 0 -8 -4 -4 -9 3 -5 1
-12 -4 -15 -5 -4 -8 5 -6 19 2 20 -1 23 -11 14 -9 -7 -19 -7 -33 1 -26 13 -26
16 -2 16 11 0 17 -4 15 -8 -3 -4 0 -8 6 -8 7 0 10 6 7 13 -2 6 -11 11 -20 9
-11 -2 -15 3 -12 17 3 15 -1 18 -18 13 -20 -5 -20 -6 -1 -13 22 -9 19 -11 -16
-13 -14 0 -30 -4 -36 -8 -7 -5 -10 4 -9 27 1 19 -3 31 -7 28 -5 -3 -7 -11 -4
-19 3 -7 1 -16 -4 -19 -6 -4 -10 1 -10 9 0 10 -9 16 -26 16 -17 0 -23 4 -18
13 5 7 0 6 -11 -3 -14 -11 -17 -11 -11 -1 7 10 3 12 -14 6 -14 -5 -20 -3 -16
3 3 6 -8 15 -26 21 -38 13 -51 14 -43 2 3 -5 1 -13 -5 -16 -6 -4 -9 -2 -8 4 2
5 -6 17 -17 26 -11 9 -15 14 -8 11 6 -4 15 -1 19 5 4 8 3 9 -4 5 -7 -4 -12 -1
-12 6 0 8 -5 6 -11 -5 -5 -9 -8 -21 -5 -25 3 -5 -1 -9 -9 -9 -8 0 -12 4 -9 9
3 4 0 8 -5 8 -6 0 -11 -6 -11 -12 0 -8 -5 -6 -11 4 -5 10 -16 15 -24 12 -8 -4
-15 -2 -15 4 0 11 25 10 36 -1 9 -8 44 11 44 24 0 6 -8 3 -17 -6 -16 -16 -17
-16 -30 1 -10 13 -13 14 -13 3 0 -12 -2 -12 -9 0 -7 10 -9 11 -13 1 -3 -9 -13
-11 -30 -7 -21 6 -25 12 -21 29 4 20 3 21 -7 5 -12 -19 -40 -23 -40 -6 0 5 4
8 9 4 5 -3 13 0 17 6 5 8 3 9 -6 4 -10 -6 -12 -3 -7 11 6 14 2 13 -14 -6 -19
-23 -20 -24 -16 -4 2 12 0 28 -5 35 -8 11 -9 10 -4 -3 3 -12 0 -18 -10 -18
-10 0 -14 6 -10 15 4 11 -3 19 -19 25 -14 5 -24 15 -23 22 2 6 -5 14 -14 16
-10 2 -18 -1 -18 -7 0 -6 7 -8 15 -5 10 4 13 0 10 -15 -2 -11 -1 -20 3 -20 19
3 46 -3 34 -8 -6 -2 -10 -9 -7 -13 3 -5 1 -12 -5 -15 -6 -4 -10 -3 -9 2 3 17
-1 33 -8 32 -20 -3 -34 2 -28 11 3 6 1 10 -5 10 -6 0 -13 -7 -16 -15 -4 -8
-11 -15 -17 -15 -5 0 -2 9 8 20 19 20 9 28 -13 10 -9 -7 -9 -7 -2 2 15 19 12
32 -5 18 -8 -7 -15 -8 -15 -2 0 5 7 15 15 22 8 7 15 18 15 24 0 6 -5 3 -11 -6
-5 -10 -17 -18 -26 -18 -14 0 -14 2 3 15 14 11 15 14 3 9 -10 -3 -20 0 -24 5
-3 6 -10 9 -15 6 -4 -3 -7 3 -6 12 2 9 8 19 14 21 7 2 12 9 12 15 0 8 -4 7
-12 -1 -14 -14 -42 -16 -33 -2 6 9 -8 14 -28 11 -5 -1 -6 3 -2 9 3 5 -1 10
-10 10 -26 0 -64 48 -57 72 3 13 1 19 -5 15 -5 -3 -10 1 -10 9 0 9 6 13 16 9
10 -4 7 2 -7 15 -12 12 -20 25 -17 31 4 5 0 9 -7 9 -9 0 -9 3 2 10 8 5 10 10
5 10 -6 0 -12 10 -12 22 -1 13 -7 24 -13 26 -8 3 -7 8 1 18 6 8 7 14 3 14 -5
0 -15 10 -23 23 l-14 22 22 -20 c16 -14 22 -15 19 -5 -2 8 -8 19 -14 25 -6 5
-14 19 -18 29 -5 15 -4 17 7 7 11 -9 17 -7 28 6 13 16 12 17 -2 5 -14 -10 -18
-10 -22 2 -4 9 -1 18 5 22 7 5 8 2 3 -6 -5 -9 -4 -11 3 -6 21 13 13 28 -10 20
-21 -6 -21 -5 -9 10 12 14 12 19 1 29 -8 8 -11 8 -7 1 4 -7 0 -17 -7 -23 -12
-10 -14 -9 -11 6 2 10 4 18 5 18 1 0 3 8 5 18 2 9 0 17 -5 17 -4 0 -11 7 -14
16 -3 8 -2 13 3 9 5 -3 11 -2 14 2 2 5 2 2 0 -5 -1 -7 1 -10 7 -7 5 3 7 -3 5
-14 -2 -11 3 -22 11 -25 8 -3 12 -2 9 3 -3 5 3 12 12 14 15 4 15 5 -2 6 -13 1
-21 8 -22 22 -2 17 1 19 13 8 13 -10 17 -10 25 2 14 22 10 36 -5 16 -9 -12
-16 -14 -21 -7 -3 5 -11 8 -16 5 -5 -4 -9 -1 -9 6 0 8 -5 7 -17 -2 -11 -10
-14 -10 -9 -1 4 7 2 12 -5 12 -7 0 -9 3 -6 7 4 3 2 12 -5 20 -6 7 -8 17 -4 21
7 7 11 8 37 11 5 0 8 5 5 10 -4 5 -17 8 -31 7 -13 -2 -22 1 -19 6 3 5 12 7 20
4 8 -3 14 -1 14 4 0 6 -5 10 -11 10 -8 0 -8 5 1 15 10 12 8 17 -11 25 -21 8
-21 10 -4 9 35 -2 46 1 40 10 -3 5 0 13 6 17 8 4 9 3 5 -4 -4 -7 -2 -12 3 -12
6 0 14 0 19 0 4 0 7 6 7 13 0 6 -4 12 -10 12 -32 1 -34 17 -9 53 15 20 18 28
7 16 -10 -11 -24 -19 -31 -16 -9 3 -7 9 7 19 12 8 21 20 21 26 0 7 -5 4 -11
-6 -5 -9 -15 -17 -22 -17 -8 0 -8 3 -2 8 13 9 16 25 19 99 1 34 5 65 10 70 5
4 5 -2 2 -14 -4 -12 -2 -24 3 -27 5 -4 8 -15 6 -26 -2 -12 0 -18 6 -15 5 4 7
11 4 16 -4 5 1 9 10 9 10 0 15 7 13 19 -2 10 6 29 17 42 l20 24 -22 -18 c-12
-11 -23 -14 -27 -8 -4 5 -2 12 3 15 5 3 7 15 4 26 -4 14 0 20 11 20 10 0 14 5
11 10 -4 6 -12 7 -18 3 -8 -5 -8 -2 0 9 7 8 9 19 5 23 -4 5 -1 5 6 1 7 -4 9
-12 6 -18 -4 -7 -2 -8 4 -4 8 5 9 13 2 26 -7 13 -6 21 5 30 8 7 12 17 8 24 -3
6 2 3 12 -6 15 -14 16 -20 5 -33 -7 -8 -11 -18 -8 -20 2 -3 15 13 29 34 21 34
25 36 36 22 12 -14 12 -14 6 4 -6 18 -5 18 10 6 11 -9 17 -10 17 -2 0 6 -5 11
-11 11 -5 0 -8 4 -4 10 3 5 13 7 23 4 13 -4 13 -3 -2 7 -15 9 -21 9 -30 -2
-14 -17 -36 -23 -36 -9 0 5 7 10 16 10 8 0 13 4 10 9 -4 5 5 8 19 6 14 -1 25
1 25 6 0 5 7 6 15 3 10 -4 15 0 15 11 0 9 -4 14 -8 11 -4 -2 -8 4 -8 15 0 19
1 19 13 3 10 -14 15 -15 28 -4 9 7 14 19 11 26 -3 7 4 16 15 19 10 4 17 10 14
15 -3 4 6 7 19 6 18 -2 23 1 18 12 -3 10 -1 13 6 8 7 -4 12 -3 12 3 0 12 55
43 63 35 3 -3 4 1 3 8 0 7 4 14 9 15 6 1 9 -6 7 -15 -2 -16 -1 -16 11 0 8 10
17 15 20 11 4 -3 7 0 7 8 0 11 2 11 10 -1 8 -12 10 -12 10 -1 0 10 3 11 13 2
10 -8 17 -7 25 1 9 9 12 9 12 -3 0 -12 2 -12 10 1 6 9 10 11 10 3 0 -7 7 -10
17 -6 9 4 14 2 11 -3 -4 -5 13 -9 38 -9 24 1 44 -3 44 -8 0 -4 5 -5 12 -1 8 5
9 2 4 -11 -5 -15 -4 -16 8 -6 11 9 15 9 18 0 2 -7 14 -13 26 -14 11 -1 19 2
16 7 -3 4 0 8 5 8 6 0 11 -5 11 -11 0 -5 5 -7 10 -4 6 3 10 2 10 -4 0 -6 7 -8
15 -5 9 4 15 0 15 -7 0 -11 2 -11 9 0 8 12 12 10 22 -12 6 -14 15 -24 19 -22
4 3 16 -5 26 -16 24 -27 112 -72 124 -64 6 4 10 2 10 -3 0 -15 41 -2 47 14 3
8 9 12 13 9 4 -3 11 3 15 12 3 10 1 19 -4 21 -6 2 -11 9 -11 14 0 6 3 8 7 5 8
-9 33 12 33 27 0 6 -5 4 -10 -4 -5 -8 -10 -11 -10 -6 0 5 -10 1 -22 -10 -13
-10 -20 -15 -16 -10 10 12 -10 46 -28 46 -8 0 -12 -5 -9 -10 4 -6 10 -8 14 -6
4 3 8 -1 8 -8 0 -7 -6 -13 -13 -13 -7 0 -12 5 -11 11 1 6 -4 10 -11 8 -6 -1
-11 1 -11 5 3 21 -2 33 -13 27 -7 -4 -8 -3 -4 4 5 9 13 9 26 2 29 -16 34 -12
10 8 -21 17 -21 18 -2 18 11 0 18 -5 15 -10 -4 -5 1 -7 11 -3 14 5 17 3 13 -8
-4 -8 -1 -17 5 -21 6 -4 8 -3 4 4 -3 6 -2 13 4 17 5 3 10 -1 10 -9 0 -16 7
-19 42 -19 10 0 15 -3 13 -7 -9 -15 28 -35 59 -32 l31 3 -22 -18 -23 -18 23 0
c23 0 29 18 14 43 -6 8 -3 10 7 6 9 -3 16 -15 16 -26 0 -13 5 -18 13 -15 8 3
20 1 28 -5 11 -8 10 -9 -3 -4 -12 3 -18 0 -18 -10 0 -11 5 -14 16 -10 13 5 14
3 6 -7 -9 -10 -5 -13 16 -12 15 0 32 4 39 8 6 4 14 3 18 -3 3 -5 11 -10 18
-10 8 0 8 3 -1 12 -15 15 -15 28 -1 28 5 0 8 -4 4 -10 -3 -5 8 -16 26 -25 17
-9 28 -12 25 -6 -4 5 2 15 13 21 16 8 22 6 31 -7 11 -17 11 -17 6 0 -3 10 0
20 8 23 8 3 14 14 13 25 -1 20 -16 27 -18 9 -3 -25 -4 -29 -9 -33 -3 -3 -11 1
-18 9 -11 12 -10 14 3 14 9 0 14 4 10 9 -3 5 3 12 13 15 10 4 29 17 42 31 20
21 21 27 9 42 -11 15 -10 15 9 -1 20 -17 21 -21 7 -29 -13 -7 -14 -11 -3 -25
8 -10 9 -13 1 -9 -6 4 -14 3 -18 -3 -4 -6 -10 -8 -15 -5 -4 3 -6 -5 -2 -17 5
-19 6 -20 12 -4 3 10 9 17 13 17 24 -3 28 1 21 21 -6 19 -5 21 8 11 11 -10 14
-8 14 12 0 13 -4 21 -8 19 -4 -3 -8 0 -8 5 0 6 7 11 15 11 8 0 15 4 15 10 0 5
-6 7 -13 4 -8 -3 -14 2 -14 11 0 9 6 14 13 11 8 -3 11 0 7 9 -3 8 -9 13 -13
10 -4 -3 -10 4 -13 15 -6 22 8 28 16 8 4 -10 6 -10 6 0 1 7 6 10 13 6 7 -5 8
-3 4 5 -5 7 -11 10 -14 7 -3 -4 -16 1 -30 10 -13 8 -30 13 -38 10 -8 -3 -12
-2 -9 3 3 5 1 12 -5 16 -6 4 -8 11 -5 16 4 5 1 9 -5 9 -6 0 -8 4 -5 10 3 5 0
7 -8 4 -8 -3 -20 2 -27 11 -7 9 -8 15 -2 15 6 0 12 -5 14 -12 3 -7 7 -5 11 6
4 10 3 15 -3 11 -6 -3 -10 -1 -10 5 0 6 -6 8 -12 4 -7 -4 -4 3 6 15 17 18 17
21 3 15 -10 -3 -18 -1 -18 5 -4 31 -6 36 -15 34 -5 -1 -9 14 -8 33 1 21 -2 31
-8 28 -6 -4 -8 -1 -6 7 3 8 11 13 17 11 7 -1 9 2 6 8 -5 8 -12 7 -24 -4 -12
-11 -20 -12 -31 -5 -13 9 -12 10 2 5 17 -5 37 29 24 41 -3 4 -6 0 -6 -8 0 -16
-42 -20 -56 -6 -5 4 0 5 11 2 18 -6 17 -4 -3 13 -13 12 -18 23 -12 27 5 3 10
1 10 -6 0 -7 3 -9 6 -6 4 4 2 13 -4 20 -7 8 -9 16 -6 20 3 3 -3 10 -14 16 -14
7 -19 19 -18 36 4 31 2 31 -19 -1 -9 -15 -11 -23 -4 -19 8 5 10 4 5 -3 -4 -7
-4 -17 0 -23 4 -8 8 -8 13 0 4 6 12 2 20 -10 7 -12 8 -18 2 -14 -6 3 -11 0
-11 -7 0 -7 -7 -3 -15 8 -9 14 -23 20 -40 19 -14 -2 -27 1 -30 5 -3 5 7 7 21
4 26 -5 27 -4 11 19 -16 25 -13 37 7 37 6 0 5 -4 -3 -9 -9 -6 -10 -11 -2 -15
6 -4 12 -2 12 3 1 6 2 16 3 21 0 6 8 15 16 20 9 6 10 10 3 10 -6 0 -15 -5 -18
-11 -4 -6 -13 -8 -21 -5 -8 3 -14 0 -14 -6 0 -6 -2 -9 -5 -6 -8 8 6 38 17 38
5 0 6 -6 2 -12 -5 -10 -4 -10 6 -1 10 9 10 15 -3 27 -18 19 -31 21 -21 4 4 -7
3 -8 -5 -4 -16 10 6 39 23 29 8 -4 7 -2 -1 7 -6 7 -9 20 -6 29 4 14 3 14 -6 1
-8 -12 -11 -12 -17 3 -3 9 -10 14 -15 11 -5 -3 -9 1 -9 8 0 9 -3 9 -10 -2 -5
-8 -10 -10 -10 -5 0 6 5 16 12 23 7 7 8 12 2 12 -6 0 -15 -5 -22 -12 -8 -8
-15 -8 -25 0 -8 7 -17 9 -20 5 -6 -6 -11 11 -8 30 0 4 -4 7 -9 7 -6 0 -10 -8
-10 -17 -1 -16 -2 -17 -13 -2 -10 13 -15 14 -24 4 -7 -7 -9 -16 -5 -20 4 -4
-5 0 -20 9 -26 17 -47 8 -33 -13 3 -6 -7 -8 -22 -7 -21 3 -27 8 -25 22 2 15 1
16 -7 5 -12 -19 9 -56 22 -38 6 9 7 8 4 -3 -2 -8 -9 -15 -16 -15 -6 0 -16 -7
-21 -15 -5 -8 -14 -16 -20 -16 -5 -1 -14 -2 -20 -3 -5 0 -10 -5 -10 -11 0 -5
8 -7 18 -4 14 5 14 4 2 -4 -8 -6 -17 -9 -21 -6 -11 7 -31 -24 -23 -37 4 -8 3
-9 -4 -5 -7 4 -12 2 -12 -4 0 -14 -18 4 -42 41 -11 18 -13 30 -6 40 8 12 9 11
5 -2 -3 -9 1 -16 8 -16 7 0 11 7 8 16 -2 9 2 5 10 -8 9 -15 17 -20 21 -12 4 6
2 11 -4 11 -6 0 -8 5 -4 11 4 8 9 7 15 -2 4 -7 5 -17 3 -21 -3 -4 0 -8 6 -8 7
0 9 7 6 16 -4 10 -2 13 6 8 7 -4 8 -3 4 5 -5 8 0 10 18 7 19 -3 23 -1 19 11
-4 10 -2 14 5 9 6 -3 13 -2 16 3 7 11 -22 36 -31 27 -3 -3 -1 -6 5 -6 23 0 -9
-35 -33 -36 -21 -2 -22 1 -12 17 8 13 13 15 20 6 6 -9 7 -8 6 3 -3 30 1 41 13
34 7 -5 8 -3 3 6 -6 10 -11 10 -20 -3 -7 -9 -16 -13 -20 -9 -5 4 -5 2 -2 -4
11 -19 -22 -54 -46 -50 -12 3 -24 5 -26 5 -2 1 6 9 17 20 12 10 22 22 22 26 0
5 -8 0 -19 -9 -17 -16 -19 -16 -26 1 -5 10 -8 21 -7 24 0 3 -6 6 -14 6 -18 0
-18 -4 6 -29 29 -32 16 -35 -20 -4 -17 14 -37 26 -43 25 -8 0 -8 -2 1 -6 6 -2
10 -9 7 -14 -4 -5 2 -6 12 -2 15 6 16 4 6 -9 -7 -8 -9 -19 -5 -23 4 -5 -1 -5
-11 -2 -11 4 -16 3 -12 -3 3 -6 13 -10 22 -10 9 0 13 -3 10 -7 -4 -3 -2 -12 4
-20 6 -7 8 -14 3 -14 -47 -7 -54 -6 -43 7 14 17 4 48 -12 38 -7 -4 -7 1 1 16
11 20 10 22 -4 17 -9 -4 -15 -1 -13 6 1 7 -3 11 -8 10 -6 -1 -11 7 -11 18 0
19 1 19 16 -1 15 -20 16 -20 16 -1 0 11 -4 18 -7 15 -4 -2 -11 1 -14 7 -4 5
-13 8 -21 5 -7 -3 -18 4 -24 14 -6 11 -16 19 -23 17 -7 -1 -11 4 -9 12 3 12 0
12 -12 1 -9 -7 -16 -9 -16 -4 -1 5 -12 -4 -26 -21 l-26 -30 16 32 c17 35 21
58 6 31 -7 -11 -19 -15 -38 -13 -15 2 -22 2 -15 -1 13 -6 6 -34 -9 -34 -5 0
-6 5 -3 10 3 6 1 10 -4 10 -15 0 -14 -13 2 -29 10 -11 7 -12 -13 -6 -23 7 -24
7 -10 -10 14 -17 13 -18 -2 -12 -10 3 -17 3 -17 -1 1 -4 1 -9 -1 -12 -1 -3 -3
-16 -6 -29 -4 -21 -3 -22 13 -10 12 10 10 5 -4 -14 -12 -16 -20 -34 -17 -42 3
-7 0 -16 -7 -21 -8 -5 -10 -3 -4 7 8 12 6 12 -9 0 -9 -8 -15 -20 -12 -27 3 -7
1 -16 -4 -19 -5 -3 -11 3 -13 12 -4 16 -5 16 -6 1 -1 -20 21 -37 27 -20 2 6
10 8 18 5 12 -4 10 -8 -8 -18 -14 -7 -28 -8 -34 -3 -16 12 -56 19 -49 8 3 -4
-1 -11 -7 -14 -7 -3 2 -3 21 0 29 4 32 3 22 -10 -7 -8 -20 -13 -30 -11 -11 2
-17 -4 -19 -18 -1 -16 1 -18 8 -8 4 8 16 16 26 17 9 2 21 9 25 16 8 12 13 4
10 -14 0 -4 5 -5 13 -2 7 3 19 -3 27 -12 13 -16 12 -16 -6 -8 -27 13 -61 11
-57 -4 3 -16 -15 -16 -21 1 -4 9 -6 9 -6 0 -1 -6 4 -15 9 -18 6 -3 10 -11 10
-16 0 -6 -4 -7 -10 -4 -19 12 -10 -7 13 -26 l22 -20 -22 6 c-14 4 -23 2 -23
-5 0 -6 5 -8 10 -5 6 3 10 -1 10 -9 0 -11 7 -9 27 10 14 13 23 27 20 31 -4 3
-7 1 -7 -5 0 -7 -4 -12 -8 -12 -5 0 -9 7 -9 15 0 8 5 12 11 9 6 -3 3 1 -8 10
-21 17 -14 36 12 31 9 -2 23 -4 30 -4 6 -1 12 -6 12 -11 0 -6 -3 -9 -7 -9 -20
3 -34 -2 -28 -11 3 -5 12 -7 19 -4 7 3 24 -5 37 -16 13 -12 19 -19 13 -16 -13
7 -37 -18 -27 -27 3 -4 1 -7 -6 -7 -8 0 -10 7 -5 22 6 19 5 21 -8 11 -8 -7
-18 -10 -21 -6 -4 3 -7 -2 -7 -13 0 -14 -2 -16 -9 -6 -7 11 -9 11 -14 -2 -4
-9 -10 -16 -14 -15 -20 3 -34 -2 -28 -10 3 -5 0 -13 -6 -17 -7 -4 -9 -3 -6 3
4 6 0 13 -8 17 -8 3 -17 1 -21 -5 -4 -6 -12 -5 -22 3 -15 12 -16 11 -3 -4 9
-13 10 -18 2 -18 -7 0 -10 -4 -7 -9 3 -5 -1 -12 -10 -15 -9 -4 -13 -2 -8 5 4
7 1 10 -7 7 -8 -3 -13 -12 -13 -21 1 -13 -3 -14 -23 -6 -21 8 -24 7 -19 -6 3
-8 1 -15 -4 -15 -6 0 -10 4 -10 10 0 5 -7 6 -17 3 -12 -5 -14 -3 -8 8 8 12 6
12 -8 0 -18 -14 -23 -26 -8 -17 5 4 6 -4 3 -16 -5 -19 -7 -20 -10 -5 -2 9 -8
17 -13 17 -15 0 14 40 34 46 10 3 16 8 14 11 -3 2 -15 -1 -27 -7 -18 -9 -25
-8 -41 6 -10 9 -19 14 -19 9 0 -4 -6 -2 -13 4 -10 8 -14 7 -14 -3 0 -8 8 -13
19 -11 10 2 18 0 18 -4 0 -15 -13 -20 -30 -11 -12 6 -17 5 -17 -5 0 -8 4 -12
9 -9 5 4 16 -2 23 -12 12 -15 15 -16 16 -4 1 8 1 18 0 23 -2 10 17 9 24 -2 3
-5 1 -12 -4 -15 -5 -3 -8 -14 -6 -24 1 -9 0 -11 -2 -4 -3 7 -8 10 -13 7 -5 -3
-7 -12 -3 -20 3 -8 0 -15 -7 -15 -6 0 -9 4 -6 9 3 5 -2 15 -11 22 -15 12 -16
12 -10 -4 4 -10 3 -16 -2 -12 -5 3 -11 -1 -14 -7 -3 -7 -4 6 -2 30 1 25 -2 42
-9 42 -6 0 -3 5 7 11 15 9 16 13 5 27 -11 13 -11 14 0 8 9 -5 13 -3 11 5 -3
19 11 50 20 45 4 -3 13 0 21 6 12 8 11 9 -3 4 -12 -4 -17 -2 -14 6 2 7 11 11
18 10 8 -2 10 0 6 4 -11 11 -38 14 -32 4 3 -5 1 -11 -4 -14 -17 -11 -5 26 13
39 9 7 13 15 8 16 -5 2 -13 15 -17 28 -4 13 -3 21 1 18 5 -3 10 6 11 20 1 18
-2 22 -7 12 -5 -7 -12 -11 -15 -7 -4 3 3 16 15 28 20 20 20 21 3 16 -14 -4
-19 -1 -20 14 -1 11 2 22 8 25 5 3 6 -1 3 -9 -4 -10 -1 -16 7 -16 7 0 9 3 6 7
-4 3 -1 13 6 21 9 13 9 14 0 8 -10 -5 -13 3 -13 29 0 20 -4 34 -8 31 -5 -3 -9
1 -9 9 0 8 4 12 9 9 4 -3 8 2 8 10 0 9 6 16 13 16 8 0 8 3 -2 9 -12 8 -12 12
-2 24 10 13 8 15 -13 13 -25 -3 -25 -3 -9 25 9 15 21 25 26 22 5 -3 4 3 -1 13
-15 28 -15 36 0 45 20 13 34 11 20 -3 -7 -7 -12 -17 -12 -23 0 -5 7 -2 14 8 8
10 18 19 23 20 4 1 6 7 4 12 -2 6 -4 16 -4 23 0 6 -4 12 -9 12 -5 0 -6 5 -3
10 5 8 11 7 21 -1 7 -6 12 -14 10 -18 -3 -4 5 -13 17 -21 20 -12 21 -12 9 3
-8 9 -10 22 -6 28 5 8 3 9 -6 4 -10 -6 -12 -4 -7 8 4 11 2 14 -9 10 -7 -3 -14
0 -14 5 0 11 38 28 53 24 4 -1 2 7 -5 18 -7 11 -17 20 -22 20 -4 0 -3 -6 3
-14 9 -11 8 -15 -5 -20 -21 -8 -21 -9 -19 17 1 12 9 23 20 26 15 2 15 5 4 13
-11 7 -9 8 6 6 13 -3 19 -10 17 -23 -3 -18 -1 -17 13 3 13 18 14 27 6 35 -20
20 -12 31 9 12 17 -15 23 -16 33 -5 9 10 9 11 -1 6 -22 -13 -38 11 -36 54 1
22 -3 40 -9 40 -17 0 2 14 24 17 14 2 18 -1 12 -9 -4 -7 -8 -25 -9 -40 -1 -24
0 -26 14 -12 12 13 13 17 2 24 -7 4 -9 13 -6 19 9 14 27 14 23 0 -1 -6 5 -14
13 -16 12 -4 12 -3 2 5 -17 11 -15 21 6 47 17 20 17 20 -5 2 -17 -15 -25 -16
-42 -7 -27 14 -27 23 -1 15 12 -4 27 -1 35 5 8 7 23 9 32 6 14 -6 15 -5 6 5
-10 10 -18 10 -38 1 -32 -15 -38 -15 -30 -2 4 6 -1 7 -12 3 -10 -3 -15 -3 -11
2 4 4 3 14 -3 22 -8 9 -8 13 -1 13 6 0 14 -5 17 -10 4 -6 11 -8 16 -5 5 4 9 1
9 -6 0 -9 4 -9 15 1 8 6 19 9 25 5 5 -3 10 -1 10 4 0 6 -8 11 -17 11 -14 0
-15 2 -5 9 8 4 13 11 13 15 -3 19 1 19 12 -2 l13 -23 19 21 c17 19 17 21 0 40
-10 11 -14 20 -9 20 5 0 21 -13 36 -30 14 -16 32 -30 40 -29 7 0 3 5 -9 11
-13 6 -23 15 -23 20 0 10 13 11 25 1 6 -5 7 -4 3 1 -8 11 19 46 35 46 6 0 2
-9 -8 -20 -10 -11 -14 -20 -9 -20 5 0 15 9 22 20 15 25 6 46 -13 30 -9 -7 -15
-8 -19 -1 -4 6 -13 8 -21 4 -8 -3 -15 0 -15 7 0 6 -4 8 -10 5 -6 -4 -2 -15 10
-27 11 -12 17 -24 14 -27 -3 -3 -14 5 -25 19 -16 21 -18 21 -13 5 3 -11 2 -16
-3 -10 -12 15 -33 17 -30 2 1 -6 -4 -11 -10 -10 -7 2 -12 0 -12 -5 1 -4 1 -14
0 -22 -1 -13 -2 -13 -11 0 -9 13 -10 13 -10 0 0 -13 -1 -13 -10 0 -6 10 -10
11 -10 3 0 -7 -5 -13 -11 -13 -5 0 -8 4 -4 9 3 5 0 13 -6 17 -8 5 -9 3 -4 -6
6 -9 4 -11 -5 -5 -9 6 -11 4 -5 -5 5 -8 4 -11 -3 -6 -7 4 -10 -1 -7 -14 2 -11
0 -22 -6 -25 -5 -4 -9 1 -9 10 0 9 -5 13 -10 10 -8 -5 -8 -11 -1 -19 6 -7 7
-17 3 -21 -4 -5 -1 -5 7 0 10 6 12 4 6 -5 -4 -7 -2 -16 6 -21 11 -7 11 -9 1
-9 -7 0 -15 7 -19 16 -8 21 -23 -2 -18 -28 2 -10 0 -18 -4 -18 -4 0 -8 -7 -8
-15 0 -8 5 -11 10 -8 6 4 7 1 2 -8 -7 -12 -6 -12 7 -1 13 10 17 10 22 -4 3 -8
1 -23 -4 -32 -9 -14 -10 -13 -5 6 4 12 2 22 -3 22 -5 0 -9 -10 -8 -22 1 -13 7
-22 15 -20 7 1 10 -2 7 -7 -9 -14 -47 -9 -42 5 3 7 -2 11 -12 9 -9 -2 -21 -4
-26 -4 -13 -1 3 -16 16 -16 6 0 13 -7 15 -15 4 -13 3 -13 -7 0 -10 13 -11 13
-8 0 1 -8 -6 -28 -15 -45 -16 -28 -17 -28 -12 -5 2 14 2 19 -1 12 -4 -8 -10
-10 -17 -3 -8 6 -17 4 -25 -5 -7 -8 -8 -14 -3 -14 6 0 17 -13 26 -30 14 -27
14 -29 -2 -23 -12 5 -15 2 -10 -10 3 -9 2 -19 -4 -22 -5 -4 -7 -17 -5 -31 3
-13 1 -22 -3 -20 -4 3 -8 -1 -8 -9 0 -8 3 -12 7 -10 11 6 8 -29 -3 -42 -5 -7
-14 -13 -19 -13 -5 0 -2 7 7 16 12 12 13 19 4 30 -6 8 -8 14 -3 14 5 0 2 5 -6
10 -12 7 -12 12 -2 22 16 16 15 28 -4 28 -9 0 -12 -5 -8 -12 4 -7 3 -8 -4 -4
-17 11 -15 15 13 26 14 5 25 15 25 22 0 8 -3 9 -8 3 -11 -16 -59 -14 -59 1 0
10 4 11 13 3 8 -7 19 -7 30 -1 11 6 13 11 5 16 -6 4 -11 2 -11 -4 0 -6 -5 -8
-10 -5 -13 8 -13 45 0 45 5 0 6 -8 3 -17 -6 -16 -5 -16 11 -4 16 14 16 16 2
27 -9 6 -16 15 -16 19 0 4 6 3 13 -3 8 -7 16 -5 27 6 13 14 13 15 -1 10 -17
-7 -56 18 -45 29 4 4 12 0 17 -9 5 -10 16 -15 23 -12 8 3 17 1 21 -5 3 -6 11
-11 17 -11 6 0 3 9 -7 20 -10 12 -24 19 -31 16 -9 -3 -11 1 -7 11 4 11 2 14
-5 9 -7 -4 -12 -2 -12 3 0 15 11 14 31 -5 11 -10 19 -12 24 -5 3 6 1 11 -4 11
-6 0 -11 5 -11 12 0 9 3 9 12 0 7 -7 17 -12 23 -12 5 1 1 9 -11 18 -21 17 -29
52 -12 52 5 0 8 -7 6 -16 -2 -10 2 -19 8 -21 7 -2 11 8 10 26 -1 28 -16 58
-16 32 0 -8 -8 -11 -20 -8 -12 3 -24 -1 -30 -11 -5 -10 -9 -12 -9 -7 -1 6 9
21 20 35 15 18 19 20 15 7 -4 -12 -2 -17 6 -14 7 2 12 11 12 20 -1 9 2 15 6
12 5 -3 10 1 13 7 3 10 7 10 20 0 14 -12 16 -11 14 7 -1 20 -27 24 -43 8 -11
-10 -24 -8 -24 4 0 5 4 8 9 4 6 -3 14 3 20 12 7 12 10 13 11 4 0 -11 3 -11 15
-1 13 10 12 15 -8 32 l-22 19 27 -16 c18 -11 25 -22 21 -33 -6 -15 -5 -15 11
-3 12 10 14 17 6 25 -5 5 -10 15 -10 20 0 6 4 5 9 -3 7 -11 10 -9 16 8 6 19 9
20 23 9 13 -11 15 -11 9 4 -3 10 -1 20 5 24 6 4 8 3 4 -4 -4 -7 1 -10 14 -9
11 1 20 7 20 14 0 6 5 15 12 19 7 5 9 2 5 -9 -4 -11 -2 -14 8 -11 8 3 13 11
12 16 -1 6 5 13 13 15 13 4 13 3 0 -6 -8 -6 -13 -11 -10 -12 3 0 13 -2 23 -4
12 -2 17 1 13 10 -3 10 0 12 11 8 9 -4 14 -2 10 3 -3 6 3 11 14 11 10 1 19 -4
19 -10 0 -7 4 -6 10 3 9 13 10 13 10 0 0 -13 2 -13 9 0 6 8 7 18 4 24 -3 5 -1
6 5 2 6 -4 8 -14 5 -24 -6 -15 -5 -16 12 -2 11 9 16 10 11 3 -4 -7 -3 -13 3
-13 5 0 12 6 14 13 3 6 3 -1 2 -18 -2 -16 -4 -32 -5 -35 -2 -3 -2 -8 -1 -12 0
-5 -3 -8 -9 -8 -5 0 -14 -8 -19 -18 -7 -14 -6 -19 4 -19 8 0 11 7 7 15 -4 11
-1 14 11 9 11 -4 15 -1 12 13 -2 11 1 22 6 25 5 4 6 11 3 17 -4 7 2 8 17 3
l24 -8 -20 24 -20 24 21 -18 c12 -10 29 -15 40 -12 17 6 17 5 -1 -7 -24 -15
-29 -35 -10 -35 7 0 11 6 8 14 -3 7 0 13 6 13 6 0 11 -8 11 -17 0 -15 2 -14
15 3 14 19 15 19 21 -3 3 -13 9 -23 13 -24 3 0 14 -2 23 -4 10 -2 15 2 12 10
-3 7 -1 16 5 20 7 4 8 0 4 -11 -4 -12 -3 -15 5 -10 8 5 10 1 5 -10 -4 -11 -3
-15 4 -11 6 4 14 1 17 -5 3 -7 3 -2 0 12 -4 17 -2 21 4 12 5 -8 11 -13 13 -12
2 1 12 -2 23 -6 11 -4 21 -2 27 7 7 11 9 10 10 -6 0 -11 3 -14 6 -8 3 9 10 10
24 3 14 -8 19 -7 20 2 0 7 4 4 9 -7 6 -13 9 -15 9 -5 1 10 12 15 31 16 16 1
27 -3 24 -7 -3 -5 0 -9 5 -9 6 0 11 5 11 11 0 8 6 7 17 -2 9 -8 14 -9 10 -2
-7 12 53 11 73 -2 5 -3 13 1 16 9 3 9 11 16 16 16 6 0 8 -7 5 -14 -4 -10 -1
-13 8 -9 8 3 12 10 8 17 -3 6 6 0 22 -14 l28 -25 -19 30 c-10 16 -14 26 -7 22
6 -4 14 -3 18 3 4 6 10 8 15 5 5 -3 11 -1 15 5 4 7 12 7 25 0 25 -13 33 -13
24 2 -4 7 -3 8 4 4 7 -4 12 -1 12 6 0 9 3 9 10 -2 9 -13 11 -13 21 0 9 13 10
13 6 0 -2 -8 -10 -15 -18 -15 -8 0 -18 -6 -22 -13 -5 -7 -12 -10 -18 -7 -5 4
-9 1 -9 -4 0 -14 5 -14 30 -1 11 6 29 14 39 19 10 6 22 7 26 3 4 -4 14 -7 23
-7 9 0 30 -9 45 -19 15 -10 30 -16 34 -12 3 3 1 6 -6 6 -7 0 -9 5 -5 12 5 7
12 5 22 -8 11 -14 13 -15 9 -3 -3 9 0 23 6 30 10 11 9 11 -5 0 -10 -7 -18 -10
-18 -6 0 4 -6 2 -14 -4 -10 -8 -16 -9 -21 -1 -7 11 -5 12 28 14 13 1 21 7 19
16 -3 11 0 11 13 0 9 -7 14 -19 11 -27 -3 -8 -2 -12 3 -8 5 3 12 -1 15 -7 3
-7 3 -2 -1 12 -5 22 -4 23 11 11 10 -9 16 -10 16 -2 0 6 -5 11 -11 11 -5 0 -7
6 -3 13 6 9 4 9 -8 -1 -13 -10 -17 -10 -22 3 -3 9 -2 13 4 10 6 -3 16 -3 23 2
18 11 38 13 31 2 -3 -5 -11 -6 -17 -3 -7 4 -8 3 -4 -1 4 -5 15 -10 24 -11 9
-2 20 -10 25 -18 5 -8 15 -13 22 -10 8 3 17 0 21 -5 3 -6 11 -8 17 -5 8 5 9 1
5 -10 -6 -14 -4 -15 14 -5 17 9 20 8 13 -2 -4 -7 -9 -28 -10 -48 -1 -20 1 -29
6 -21 4 7 7 23 5 36 -2 20 1 23 23 19 13 -2 27 -7 30 -9 3 -3 11 -1 19 6 11 9
13 8 11 -3 -2 -8 5 -14 17 -14 11 -1 25 -4 32 -8 6 -4 13 -3 15 3 2 6 14 4 31
-5 16 -8 25 -9 21 -3 -5 8 -2 9 9 5 10 -3 17 -2 17 3 0 6 5 10 11 10 5 0 7 -6
4 -12 -4 -7 0 -5 8 5 11 14 16 15 20 5 4 -10 6 -10 6 0 1 6 10 12 20 12 11 0
22 6 24 13 4 10 6 10 6 0 1 -7 5 -13 11 -13 5 0 7 6 4 13 -3 8 2 14 10 14 8 0
12 -5 9 -11 -4 -6 1 -5 10 3 9 7 17 20 17 28 0 9 6 13 14 10 8 -3 17 1 20 9 3
8 12 14 21 14 8 0 15 4 15 8 0 5 10 8 23 7 31 -3 40 4 26 21 -10 12 -9 13 4 9
8 -4 18 -1 22 4 3 6 10 9 15 6 4 -3 6 5 2 17 -4 16 -2 19 8 13 9 -5 11 -4 6 4
-4 6 -11 9 -15 7 -4 -3 -8 1 -8 9 0 8 4 12 9 9 4 -3 8 -2 9 3 0 4 2 16 4 26 2
9 -1 15 -6 11 -5 -3 -6 -11 -2 -17 4 -7 0 -6 -10 2 -18 14 -23 26 -8 17 5 -3
12 1 15 9 3 9 -1 18 -9 22 -13 4 -13 8 -3 21 8 10 8 13 2 9 -7 -4 -14 0 -18 8
-3 8 -12 15 -21 15 -8 0 -15 5 -15 11 0 5 -4 7 -10 4 -5 -3 -10 1 -10 9 0 10
-9 16 -24 16 -13 0 -27 6 -29 13 -4 9 -8 8 -17 -3 -10 -12 -11 -11 -7 8 5 23
5 23 -13 7 -17 -16 -19 -15 -30 6 -9 15 -14 18 -20 9 -5 -9 -9 -9 -14 -1 -4 6
-5 15 -1 20 3 5 1 12 -5 16 -5 3 -10 -1 -10 -9 0 -20 -17 -29 -26 -15 -4 7 -3
10 2 6 5 -3 14 6 21 19 12 26 5 31 -16 12 -11 -11 -12 -10 -6 1 6 10 4 13 -7
9 -10 -4 -14 -1 -13 10 5 35 18 62 27 56 5 -3 5 -11 -2 -19 -7 -8 -7 -16 -2
-19 14 -8 22 30 9 43 -6 6 -7 11 -3 11 5 0 3 7 -5 16 -7 9 -9 18 -3 22 5 4 11
14 12 22 2 8 0 12 -4 8 -12 -13 -34 25 -22 39 6 7 14 10 19 7 5 -3 6 2 3 10
-3 9 -11 16 -17 16 -6 0 -8 -3 -4 -6 3 -4 0 -13 -8 -21 -13 -12 -13 -17 1 -39
17 -25 14 -41 -5 -30 -6 4 -7 14 -4 24 6 15 5 15 -10 3 -9 -7 -14 -18 -10 -24
3 -6 1 -7 -5 -3 -12 7 -5 36 8 36 5 0 7 8 5 18 -1 9 2 23 8 30 6 8 6 12 -2 12
-7 0 -10 4 -6 10 3 5 13 6 23 3 16 -6 16 -6 -1 11 -9 10 -15 22 -12 27 4 5 2
9 -4 9 -5 0 -13 -9 -16 -20 -4 -12 -11 -17 -18 -13 -7 3 -4 -3 6 -14 15 -17
16 -25 7 -42 -6 -12 -13 -21 -16 -21 -3 0 -3 4 0 9 8 13 -4 42 -14 36 -5 -3
-13 2 -18 10 -4 9 -18 17 -29 18 -12 0 -19 5 -16 11 4 5 -1 7 -10 3 -9 -3 -19
-2 -22 3 -3 5 -13 6 -23 3 -14 -4 -13 -2 3 11 20 17 20 17 -1 11 -13 -3 -26 1
-34 10 -8 10 -9 15 -1 15 6 0 11 -4 11 -8 0 -5 14 -9 30 -9 20 0 26 3 18 9
-10 6 -10 8 1 8 8 0 12 3 9 6 -4 3 -16 0 -28 -6 -20 -11 -21 -10 -15 12 4 16
4 19 -3 9 -13 -18 -44 -7 -36 14 3 8 1 15 -5 15 -6 0 -10 -5 -8 -11z m-106
-109 c-1 -21 -10 -18 -13 5 -1 8 2 15 6 15 5 0 8 -9 7 -20z m324 -3 c-10 -9
-11 -8 -5 6 3 10 9 15 12 12 3 -3 0 -11 -7 -18z m-398 -35 c-1 -23 2 -42 6
-42 4 0 7 -10 8 -22 1 -20 0 -19 -15 7 -17 29 -42 45 -42 25 0 -5 3 -10 8 -10
4 0 13 -10 21 -22 13 -21 13 -22 -2 -10 -10 9 -17 10 -22 2 -3 -5 -1 -10 6
-10 17 0 5 -11 -18 -15 -10 -2 -18 -4 -18 -5 0 -1 -8 -3 -17 -5 -9 -2 -23 4
-30 13 -10 12 -10 14 0 8 6 -4 12 -2 12 4 0 6 -7 13 -15 16 -12 5 -12 8 2 22
9 10 19 17 22 17 17 1 29 18 24 32 -5 13 -1 12 17 -5 26 -24 46 -12 30 19 -10
18 -3 32 14 26 6 -2 10 -22 9 -45z m436 -128 c-15 -18 -23 -18 -16 0 3 7 0 19
-6 26 -10 10 -7 10 11 1 19 -10 21 -15 11 -27z m-1486 -159 c-3 -9 -8 -14 -10
-11 -3 3 -2 9 2 15 9 16 15 13 8 -4z m242 6 c3 -5 1 -12 -5 -16 -5 -3 -10 1
-10 9 0 18 6 21 15 7z m-495 -9 c0 -5 -7 -9 -15 -9 -8 0 -12 4 -9 9 3 4 9 8
15 8 5 0 9 -4 9 -8z m74 0 c3 -5 -1 -9 -9 -9 -8 0 -12 4 -9 9 3 4 7 8 9 8 2 0
6 -4 9 -8z m270 -4 c-3 -4 -9 -8 -15 -8 -5 0 -9 4 -9 8 0 5 7 9 15 9 8 0 12
-4 9 -9z m181 -9 c-4 -5 -12 -9 -18 -8 -9 0 -8 2 1 6 6 2 9 10 6 15 -4 7 -2 8
5 4 6 -4 9 -12 6 -17z m272 -11 c-3 -8 -6 -5 -6 6 -1 11 2 17 5 13 3 -3 4 -12
1 -19z m-217 2 c0 -5 -4 -10 -10 -10 -5 0 -10 5 -10 10 0 6 5 10 10 10 6 0 10
-4 10 -10z m1421 -213 c-10 -9 -11 -8 -5 6 3 10 9 15 12 12 3 -3 0 -11 -7 -18z
m-1687 -68 c-3 -5 -10 -7 -15 -3 -5 3 -7 10 -3 15 3 5 10 7 15 3 5 -3 7 -10 3
-15z m-71 -55 c-3 -8 -9 -14 -13 -14 -11 0 -21 30 -14 41 9 15 34 -10 27 -27z
m-240 -11 c-4 -10 -9 -11 -19 -2 -18 15 -18 15 5 15 11 0 17 -5 14 -13z m180
0 c-3 -7 -10 -10 -17 -6 -6 4 -5 -1 3 -10 12 -15 11 -17 -8 -14 -22 3 -43 25
-36 37 2 3 17 5 33 5 20 1 28 -3 25 -12z m-213 -17 c0 -2 -7 -7 -16 -10 -8 -3
-12 -2 -9 4 6 10 25 14 25 6z m-9 -33 c3 1 1 -2 -3 -8 -5 -5 -15 -2 -26 9 -16
18 -16 18 4 8 12 -6 23 -10 25 -9z m169 -51 c0 -3 -3 -2 -7 1 -3 4 -14 0 -24
-8 -15 -15 -17 -14 -16 13 2 28 3 29 24 15 13 -9 23 -18 23 -21z m-210 18 c8
-5 12 -11 10 -14 -3 -2 -14 2 -24 10 -22 15 -10 19 14 4z m-601 -28 c8 8 11 8
8 2 -5 -8 2 -11 18 -10 18 1 24 5 20 16 -4 9 1 7 13 -5 11 -11 18 -22 16 -24
-2 -2 1 -10 7 -17 8 -9 5 -15 -9 -23 -17 -9 -23 -6 -36 14 -9 14 -12 25 -7 25
6 0 14 -7 19 -16 6 -11 11 -13 16 -5 4 6 2 11 -4 11 -6 0 -9 4 -6 9 7 10 -35
8 -52 -3 -11 -6 -42 30 -42 49 1 5 6 0 13 -13 10 -18 15 -20 26 -10z m-299 -4
c0 -4 -4 -8 -9 -8 -6 0 -12 4 -15 8 -3 5 1 9 9 9 8 0 15 -4 15 -9z m888 -13
c-3 -3 -9 2 -12 12 -6 14 -5 15 5 6 7 -7 10 -15 7 -18z m-628 5 c0 -5 -5 -10
-11 -10 -5 0 -7 5 -4 10 3 6 8 10 11 10 2 0 4 -4 4 -10z m-230 -4 c0 -3 -4 -8
-10 -11 -5 -3 -10 -1 -10 4 0 6 5 11 10 11 6 0 10 -2 10 -4z m520 -2 c0 -8
-19 -13 -24 -6 -3 5 1 9 9 9 8 0 15 -2 15 -3z m315 -4 c3 -6 -1 -7 -9 -4 -18
7 -21 14 -7 14 6 0 13 -4 16 -10z m60 -8 c-3 -3 -11 0 -18 7 -9 10 -8 11 6 5
10 -3 15 -9 12 -12z m-598 -18 c2 -5 -6 -10 -17 -10 -20 0 -25 7 -13 20 9 8
26 3 30 -10z m623 6 c0 -5 -5 -10 -11 -10 -5 0 -7 5 -4 10 3 6 8 10 11 10 2 0
4 -4 4 -10z m-976 -22 c4 6 14 8 23 5 14 -6 14 -8 -2 -19 -20 -14 -45 -3 -45
20 0 6 4 5 9 -3 6 -9 11 -10 15 -3z m926 -3 c0 -8 -4 -15 -8 -15 -5 0 -9 7 -9
15 0 8 4 15 9 15 4 0 8 -7 8 -15z m-968 -47 c-9 -9 -12 -9 -12 1 0 10 -3 11
-13 2 -14 -11 -27 -5 -27 12 0 5 7 7 15 4 8 -4 17 -1 21 4 4 7 10 7 17 0 8 -8
8 -14 -1 -23z m1158 -22 c0 -6 -7 -3 -15 8 -13 17 -15 17 -41 -10 -26 -28 -25
-23 6 23 13 21 16 21 32 6 10 -9 18 -21 18 -27z m-1220 30 c0 -2 -8 -10 -17
-17 -16 -13 -17 -12 -4 4 13 16 21 21 21 13z m1030 -34 c0 -8 -1 -13 -3 -11
-1 2 -9 12 -16 22 -12 15 -12 17 3 11 9 -3 16 -13 16 -22z m-584 -2 c0 -22 -4
-24 -26 -10 -13 9 -13 11 0 20 22 14 26 12 26 -10z m-416 -20 c0 -5 -4 -10
-10 -10 -5 0 -10 5 -10 10 0 6 5 10 10 10 6 0 10 -4 10 -10z m1080 0 c0 -5 9
-19 20 -30 l20 -20 -20 -20 c-11 -11 -16 -20 -12 -20 5 0 14 -12 21 -27 10
-23 10 -25 -2 -15 -8 7 -21 10 -29 7 -16 -6 -23 31 -7 40 5 4 6 11 3 17 -4 6
-2 8 4 4 21 -13 23 15 2 44 -12 17 -17 30 -11 30 6 0 11 -4 11 -10z m-590 -14
c0 -3 -4 -8 -10 -11 -5 -3 -10 -1 -10 4 0 6 5 11 10 11 6 0 10 -2 10 -4z m630
-6 c0 -5 -4 -10 -10 -10 -5 0 -10 5 -10 10 0 6 5 10 10 10 6 0 10 -4 10 -10z
m-644 -70 c0 -12 -4 -16 -9 -11 -5 5 -6 14 -3 20 10 15 12 14 12 -9z m-12 -36
c3 -8 2 -12 -4 -9 -6 3 -10 10 -10 16 0 14 7 11 14 -7z m31 -42 c-3 -3 -11 0
-18 7 -9 10 -8 11 6 5 10 -3 15 -9 12 -12z m-33 -66 c10 6 9 3 -1 -9 -7 -9
-10 -17 -5 -17 11 0 -29 -29 -40 -30 -5 0 -2 8 7 18 12 13 13 21 5 37 -10 18
-10 19 5 7 9 -8 22 -10 29 -6z m1071 -21 c-3 -9 -8 -14 -10 -11 -3 3 -2 9 2
15 9 16 15 13 8 -4z m74 2 c0 -8 -6 -14 -14 -14 -17 0 -17 14 0 20 6 3 12 6
13 6 0 1 1 -5 1 -12z m-552 -7 c-3 -5 -12 -10 -18 -10 -7 0 -6 4 3 10 19 12
23 12 15 0z m0 -30 c-3 -5 -12 -10 -18 -10 -7 0 -6 4 3 10 19 12 23 12 15 0z
m-575 -14 c0 -2 -7 -7 -16 -10 -8 -3 -12 -2 -9 4 6 10 25 14 25 6z m1580 -11
c0 -12 -19 -12 -23 0 -4 9 -1 12 9 8 7 -3 14 -7 14 -8z m-248 -59 c-9 -16 -11
-56 -1 -56 5 0 9 -5 9 -11 0 -8 -5 -8 -15 1 -15 13 -21 2 -7 -16 4 -5 0 -2 -9
8 -19 20 -35 12 -18 -9 7 -8 8 -13 1 -13 -5 0 -13 7 -16 16 -5 13 -9 14 -21 4
-13 -11 -14 -10 -9 4 4 10 12 15 19 12 17 -6 50 30 36 38 -5 4 -8 15 -6 26 2
11 -1 20 -6 20 -6 0 -7 5 -4 10 4 6 15 3 30 -7 12 -10 20 -22 17 -27z m-767
14 c-3 -5 -12 -10 -18 -10 -7 0 -6 4 3 10 19 12 23 12 15 0z m1205 -15 c7 -8
9 -15 6 -15 -4 0 -14 7 -22 15 -9 8 -11 15 -6 15 5 0 15 -7 22 -15z m-1717
-38 c7 3 8 2 4 -2 -14 -16 -36 -14 -29 3 4 10 7 12 10 4 2 -7 9 -9 15 -5z
m907 -43 c0 -2 -7 -4 -15 -4 -8 0 -15 4 -15 10 0 5 7 7 15 4 8 -4 15 -8 15
-10z m305 -14 c-3 -5 -12 -10 -18 -10 -7 0 -6 4 3 10 19 12 23 12 15 0z m24
-13 c-2 -1 -14 -11 -26 -21 -13 -11 -23 -16 -23 -13 0 10 31 37 42 37 6 0 9
-1 7 -3z m-335 -36 c4 -5 -3 -7 -14 -4 -23 6 -26 13 -6 13 8 0 17 -4 20 -9z
m-814 -22 c0 -4 -9 -7 -19 -6 -11 0 -18 4 -16 7 6 9 35 8 35 -1z m435 -19 c3
-5 1 -10 -4 -10 -6 0 -11 5 -11 10 0 6 2 10 4 10 3 0 8 -4 11 -10z m-440 -18
c-3 -3 -11 0 -18 7 -9 10 -8 11 6 5 10 -3 15 -9 12 -12z m1670 -2 c-8 -9 -13
-20 -10 -23 3 -4 2 -5 -2 -2 -15 12 -9 41 8 41 16 0 17 -2 4 -16z m49 -19 c3
-5 -2 -15 -12 -22 -15 -12 -16 -12 -5 2 7 9 10 19 6 22 -3 4 -4 7 0 7 3 0 8
-4 11 -9z m-837 -76 c0 -8 -4 -12 -9 -9 -5 3 -6 10 -3 15 9 13 12 11 12 -6z
m-22 -24 c2 -11 0 -21 -4 -21 -5 0 -8 11 -8 25 0 30 6 28 12 -4z m944 13 c4 3
8 -1 8 -9 0 -11 -4 -12 -14 -4 -7 6 -13 17 -12 23 0 7 2 6 6 -2 2 -6 8 -10 12
-8z m-1112 -19 c0 -8 -4 -12 -9 -9 -4 3 -8 0 -8 -7 0 -7 -3 -9 -6 -6 -4 4 -1
13 6 22 15 19 17 19 17 0z m143 9 c0 -8 -19 -13 -24 -6 -3 5 1 9 9 9 8 0 15
-2 15 -3z m-443 -60 c-3 -3 -12 -4 -19 -1 -8 3 -5 6 6 6 11 1 17 -2 13 -5z
m153 -24 c0 -5 -2 -10 -4 -10 -3 0 -8 5 -11 10 -3 6 -1 10 4 10 6 0 11 -4 11
-10z m-560 -80 c0 -5 -2 -10 -4 -10 -3 0 -8 5 -11 10 -3 6 -1 10 4 10 6 0 11
-4 11 -10z m1895 0 c3 -5 1 -10 -4 -10 -6 0 -11 5 -11 10 0 6 2 10 4 10 3 0 8
-4 11 -10z m70 -70 c0 -17 -7 -24 -25 -27 -18 -2 -21 -1 -10 6 8 5 18 7 22 5
4 -3 8 0 8 5 0 6 -6 11 -12 12 -9 0 -9 2 1 6 11 5 11 7 0 15 -11 8 -11 9 1 5
8 -2 15 -14 15 -27z m11 -56 c0 -22 -2 -23 -11 -10 -7 9 -14 13 -17 10 -4 -3
-9 0 -14 7 -4 7 -3 10 2 6 6 -3 16 -2 24 4 8 5 15 9 16 9 0 0 0 -12 0 -26z
m-51 -39 c-5 15 -3 17 6 8 17 -17 1 -37 -17 -22 -8 6 -14 16 -14 22 0 6 7 2
16 -9 15 -19 16 -19 9 1z m-1954 -48 c-10 -9 -11 -8 -5 6 3 10 9 15 12 12 3
-3 0 -11 -7 -18z m1644 0 c3 -4 2 -5 -2 -2 -3 3 -12 0 -18 -5 -9 -7 -14 -6
-18 3 -5 14 28 17 38 4z m-1655 -27 c0 -5 -5 -10 -11 -10 -5 0 -7 5 -4 10 3 6
8 10 11 10 2 0 4 -4 4 -10z m31 -7 c13 -16 12 -17 -3 -4 -10 7 -18 15 -18 17
0 8 8 3 21 -13z m679 -7 c0 -3 -4 -8 -10 -11 -5 -3 -10 -1 -10 4 0 6 5 11 10
11 6 0 10 -2 10 -4z m1159 -22 c-7 -9 -8 -14 -1 -14 6 0 14 5 17 10 3 6 11 10
18 10 6 0 1 -7 -11 -16 -25 -17 -49 -10 -33 10 6 7 7 17 3 21 -4 5 -1 5 6 1
10 -6 10 -11 1 -22z m-1296 -79 c4 -8 2 -17 -3 -20 -6 -4 -10 3 -10 14 0 25 6
27 13 6z m-518 -385 c17 -18 17 -20 2 -14 -9 3 -17 2 -17 -4 0 -6 5 -12 11
-14 5 -2 11 -10 12 -18 2 -8 7 -21 11 -29 7 -11 6 -12 -5 -5 -8 5 -18 9 -24 9
-5 0 -9 10 -9 23 1 12 -3 22 -9 22 -6 0 -5 5 2 13 8 10 7 17 -1 25 -8 8 -8 12
-2 12 6 0 19 -9 29 -20z m376 -14 c-8 -10 -9 -16 -1 -21 7 -4 5 -11 -4 -21
-19 -18 -32 -18 -17 0 6 8 11 18 10 22 -3 20 2 34 12 34 8 0 8 -4 0 -14z
m-414 -130 c-7 -18 12 -36 32 -29 14 4 14 3 1 -6 -19 -13 -43 -14 -35 -1 3 5
-6 12 -20 16 -13 3 -22 10 -19 16 3 5 12 7 20 4 8 -3 14 -1 14 4 0 6 3 10 6
10 3 0 4 -6 1 -14z m60 -52 c-3 -3 -12 -4 -19 -1 -8 3 -5 6 6 6 11 1 17 -2 13
-5z m-28 -34 c11 -24 11 -24 -3 -6 -9 11 -16 24 -16 30 0 12 5 7 19 -24z m-25
-195 c-4 -8 -8 -15 -10 -15 -2 0 -4 7 -4 15 0 8 4 15 10 15 5 0 7 -7 4 -15z
m1 -31 c8 -1 15 3 15 9 0 5 3 7 6 4 4 -4 -1 -18 -11 -33 -17 -26 -17 -27 1
-21 18 7 18 6 2 -7 -18 -13 -25 -32 -9 -22 5 3 11 -2 13 -12 3 -12 -1 -18 -12
-18 -10 0 -16 5 -13 12 2 6 -3 18 -11 27 -8 8 -12 17 -9 21 4 3 2 6 -3 6 -5 0
-9 16 -9 35 0 31 2 33 13 18 6 -9 19 -18 27 -19z m-7 -156 c-3 -14 -18 -28
-30 -28 -13 0 -9 28 5 33 21 9 27 7 25 -5z m2 -142 c0 -3 -4 -8 -10 -11 -5 -3
-10 -1 -10 4 0 6 5 11 10 11 6 0 10 -2 10 -4z m540 -30 c0 -2 -8 -10 -17 -17
-16 -13 -17 -12 -4 4 13 16 21 21 21 13z m17 -30 c0 -8 -6 -12 -15 -9 -11 5
-11 7 0 14 7 5 13 9 14 9 0 0 1 -6 1 -14z m-627 -36 c-12 -23 -16 -24 -26 -8
-4 6 -3 8 3 5 6 -4 13 0 17 8 3 8 8 15 11 15 3 0 1 -9 -5 -20z m684 -19 c-2
-3 -12 3 -22 13 -16 17 -16 18 5 5 12 -7 20 -15 17 -18z m-749 -21 c-4 -6 -1
-18 7 -27 9 -12 9 -15 1 -9 -8 4 -13 1 -13 -8 0 -16 -32 -17 -47 -2 -5 4 -3 7
2 5 6 -1 18 1 28 6 15 6 16 10 5 16 -11 7 -10 11 2 19 19 13 23 12 15 0z m30
-10 c3 -5 1 -10 -4 -10 -6 0 -11 5 -11 10 0 6 2 10 4 10 3 0 8 -4 11 -10z
m215 -224 c-7 -7 -15 -5 -22 3 -11 10 -10 11 5 5 14 -5 16 -2 11 12 -5 16 -4
16 5 4 6 -9 7 -18 1 -24z m182 23 c2 -2 1 -3 -1 -2 -2 2 -9 -2 -16 -7 -8 -7
-12 -5 -12 4 0 12 22 16 29 5z m133 1 c-3 -5 -12 -10 -18 -10 -7 0 -6 4 3 10
19 12 23 12 15 0z m-48 -15 c0 -8 -4 -15 -9 -15 -10 0 -11 14 -1 23 9 10 10 9
10 -8z m-344 -10 c-3 -9 -8 -14 -10 -11 -3 3 -2 9 2 15 9 16 15 13 8 -4z m287
5 c0 -5 -5 -10 -11 -10 -5 0 -7 5 -4 10 3 6 8 10 11 10 2 0 4 -4 4 -10z m-30
-20 c0 -4 -7 -7 -15 -6 -23 3 -26 12 -5 13 11 1 20 -2 20 -7z m158 -11 c3 -12
2 -12 -7 1 -5 8 -14 11 -18 6 -4 -4 4 -18 20 -30 27 -22 39 -45 15 -29 -7 4
-24 9 -38 9 -38 3 -38 3 -36 19 3 22 16 31 16 11 0 -9 5 -14 10 -11 6 4 8 11
5 16 -8 12 4 31 18 26 6 -2 12 -10 15 -18z m92 14 c0 -1 -8 -7 -18 -12 -13 -7
-19 -6 -19 2 0 7 9 13 19 13 10 0 18 -1 18 -3z m780 -3 c0 -5 -5 -10 -11 -10
-5 0 -7 5 -4 10 3 6 8 10 11 10 2 0 4 -4 4 -10z m-1410 -15 c-15 -18 1 -20 18
-3 7 7 12 9 12 4 0 -4 -7 -14 -15 -22 -8 -9 -15 -13 -15 -9 0 3 -10 1 -21 -6
-17 -9 -20 -8 -14 3 11 18 37 48 43 48 2 0 -1 -7 -8 -15z m315 -5 c-3 -5 -12
-10 -18 -10 -7 0 -6 4 3 10 19 12 23 12 15 0z m258 -6 c-6 -16 32 -11 53 7 12
10 13 9 8 -6 -6 -14 -4 -16 7 -10 8 5 5 -1 -5 -13 -20 -22 -9 -31 12 -10 8 8
15 8 27 -2 8 -7 18 -10 22 -6 4 3 -1 12 -10 19 -13 9 -14 16 -6 27 9 13 10 13
6 -2 -3 -9 1 -19 9 -22 8 -3 14 -1 14 4 0 6 5 10 11 10 6 0 0 -14 -12 -31 -14
-21 -24 -27 -29 -19 -5 8 -9 6 -14 -6 -5 -13 -10 -14 -18 -6 -8 8 -15 8 -24 1
-9 -7 -11 -5 -10 7 0 9 -7 18 -17 20 -17 2 -46 30 -47 45 0 3 6 6 14 6 8 0 12
-6 9 -13z m-365 -16 c-6 -26 -38 -32 -38 -7 0 6 4 8 9 4 5 -3 12 -1 16 5 9 14
16 13 13 -2z m-64 -6 c3 -5 -1 -9 -9 -9 -8 0 -12 4 -9 9 3 4 7 8 9 8 2 0 6 -4
9 -8z m-864 -12 c0 -5 -5 -10 -11 -10 -5 0 -7 5 -4 10 3 6 8 10 11 10 2 0 4
-4 4 -10z m647 -12 c-3 -8 -6 -5 -6 6 -1 11 2 17 5 13 3 -3 4 -12 1 -19z m140
15 c-4 -3 -2 -12 5 -20 8 -10 8 -16 0 -24 -7 -5 -10 -6 -7 -3 3 4 0 13 -6 20
-10 12 -5 34 8 34 4 0 3 -3 0 -7z m723 3 c0 -3 -4 -8 -10 -11 -5 -3 -10 -1
-10 4 0 6 5 11 10 11 6 0 10 -2 10 -4z m580 -6 c0 -5 -5 -10 -11 -10 -5 0 -7
5 -4 10 3 6 8 10 11 10 2 0 4 -4 4 -10z m-1472 -14 c-7 -8 -15 -12 -17 -11 -5
6 10 25 20 25 5 0 4 -6 -3 -14z m945 -6 c-3 -12 -8 -19 -11 -16 -5 6 5 36 12
36 2 0 2 -9 -1 -20z m628 1 c7 12 9 11 9 -1 0 -13 1 -13 11 0 9 13 10 13 6 0
-2 -8 -9 -15 -14 -15 -6 0 -15 -3 -19 -7 -4 -5 -2 -8 5 -8 7 0 9 -5 6 -10 -4
-6 -15 -8 -25 -5 -24 8 -34 -9 -15 -25 8 -7 15 -17 15 -22 0 -6 -6 -6 -14 1
-11 9 -16 9 -22 0 -5 -9 -11 -7 -21 7 -8 10 -17 18 -21 16 -3 -2 -8 2 -10 10
-2 8 0 9 5 3 12 -14 52 -15 47 0 -3 6 7 17 20 23 14 6 24 17 22 24 -1 7 -1 9
2 4 2 -4 8 -2 13 5z m-1806 -21 c3 -5 1 -10 -4 -10 -6 0 -11 5 -11 10 0 6 2
10 4 10 3 0 8 -4 11 -10z m1385 6 c0 -3 -4 -8 -10 -11 -5 -3 -10 -1 -10 4 0 6
5 11 10 11 6 0 10 -2 10 -4z m175 -5 c3 -5 2 -12 -3 -15 -5 -3 -9 1 -9 9 0 17
3 19 12 6z m-1512 -35 c4 -10 1 -13 -8 -9 -8 3 -12 9 -9 14 7 12 11 11 17 -5z
m-563 -46 c0 -5 -2 -10 -4 -10 -3 0 -8 5 -11 10 -3 6 -1 10 4 10 6 0 11 -4 11
-10z m237 -5 c0 -8 -4 -12 -9 -9 -5 3 -6 10 -3 15 9 13 12 11 12 -6z m126 -10
c4 -8 1 -17 -5 -21 -6 -4 -8 -3 -4 4 3 6 -2 15 -11 21 -16 9 -16 10 -2 11 9 0
19 -7 22 -15z m-166 -10 c0 -8 -4 -12 -9 -9 -5 3 -6 10 -3 15 9 13 12 11 12
-6z m136 2 c7 4 6 -1 -2 -10 -8 -10 -16 -15 -19 -12 -9 8 -32 -17 -25 -28 3
-6 1 -7 -6 -3 -6 4 -9 12 -6 17 10 15 -7 10 -27 -8 -15 -13 -21 -14 -31 -4 -9
10 -8 11 7 5 15 -6 17 -4 11 6 -5 8 -4 11 3 6 6 -3 15 2 21 11 9 16 12 16 21
3 9 -14 14 -7 11 13 -1 5 3 6 9 2 5 -3 10 0 11 7 0 10 2 10 6 0 2 -6 10 -9 16
-5z m-423 -29 c16 -15 20 -15 31 -2 10 12 14 12 21 2 6 -10 10 -10 18 2 7 11
10 11 10 2 0 -7 -7 -15 -15 -18 -8 -4 -13 -9 -10 -13 9 -15 -37 -4 -58 14 -12
11 -23 18 -24 17 -8 -6 -23 -1 -23 7 0 14 28 7 50 -11z m155 12 c3 -6 -1 -7
-9 -4 -18 7 -21 14 -7 14 6 0 13 -4 16 -10z m100 -20 c10 -11 16 -20 13 -20
-3 0 -13 9 -23 20 -10 11 -16 20 -13 20 3 0 13 -9 23 -20z m-30 0 c3 -5 1 -10
-4 -10 -6 0 -11 5 -11 10 0 6 2 10 4 10 3 0 8 -4 11 -10z"/>
<path d="M3294 4105 c-4 -8 -10 -13 -14 -10 -4 3 -11 -2 -14 -11 -3 -8 -11
-12 -17 -8 -8 4 -9 3 -5 -5 4 -6 12 -9 17 -6 13 9 11 -9 -2 -22 -9 -9 -7 -11
7 -8 11 2 21 4 24 5 3 1 9 2 13 1 5 -1 6 3 3 8 -4 5 -2 13 4 16 8 5 8 11 0 20
-7 8 -9 19 -5 25 3 5 4 10 0 10 -3 0 -8 -7 -11 -15z m10 -24 c3 -4 -4 -17 -17
-27 -18 -16 -19 -16 -8 -1 11 14 11 17 0 17 -11 0 -11 2 1 10 18 12 18 12 24
1z"/>
<path d="M2186 3467 c3 -10 9 -15 12 -12 3 3 0 11 -7 18 -10 9 -11 8 -5 -6z"/>
<path d="M2040 3100 c0 -5 5 -10 11 -10 5 0 7 5 4 10 -3 6 -8 10 -11 10 -2 0
-4 -4 -4 -10z"/>
<path d="M1573 1545 c0 -8 4 -12 9 -9 5 3 6 10 3 15 -9 13 -12 11 -12 -6z"/>
<path d="M1527 1130 c6 -23 24 -22 31 1 3 8 1 11 -3 7 -5 -4 -14 -3 -21 3 -9
8 -11 5 -7 -11z"/>
<path d="M2046 409 c5 -9 31 -6 40 4 4 4 -4 6 -19 5 -14 -1 -24 -5 -21 -9z"/>
<path d="M2105 391 c-3 -5 0 -13 6 -17 7 -4 9 -3 5 4 -3 5 0 13 6 15 9 4 10 6
1 6 -6 1 -14 -3 -18 -8z"/>
<path d="M545 210 c-3 -6 1 -7 9 -4 18 7 21 14 7 14 -6 0 -13 -4 -16 -10z"/>
<path d="M3037 4273 c-10 -9 -9 -23 1 -23 5 0 9 7 9 15 0 17 -1 18 -10 8z"/>
<path d="M3285 4260 c10 -11 20 -20 23 -20 3 0 -3 9 -13 20 -10 11 -20 20 -23
20 -3 0 3 -9 13 -20z"/>
<path d="M3369 4263 c-13 -16 -12 -17 4 -4 16 13 21 21 13 21 -2 0 -10 -8 -17
-17z"/>
<path d="M2860 4240 c-9 -6 -10 -10 -3 -10 6 0 15 5 18 10 8 12 4 12 -15 0z"/>
<path d="M3370 4240 c-9 -6 -10 -10 -3 -10 6 0 15 5 18 10 8 12 4 12 -15 0z"/>
<path d="M2910 4218 c0 -4 4 -8 9 -8 6 0 12 4 15 8 3 5 -1 9 -9 9 -8 0 -15 -4
-15 -9z"/>
<path d="M3215 4220 c-3 -5 -1 -10 4 -10 6 0 11 5 11 10 0 6 -2 10 -4 10 -3 0
-8 -4 -11 -10z"/>
<path d="M3310 4226 c0 -2 7 -7 16 -10 8 -3 12 -2 9 4 -6 10 -25 14 -25 6z"/>
<path d="M3650 4223 c0 -7 -9 -13 -21 -13 -11 0 -17 -5 -14 -10 4 -6 10 -8 15
-5 12 8 70 -22 70 -36 0 -6 4 -8 9 -4 6 3 14 -3 20 -12 6 -10 11 -14 11 -9 0
5 -8 18 -17 28 -14 15 -14 21 -4 27 10 6 8 10 -6 16 -10 5 -24 7 -32 6 -8 -1
-18 3 -22 11 -7 10 -9 10 -9 1z m55 -33 c-3 -5 -13 -6 -21 -3 -12 4 -13 8 -3
14 15 9 32 2 24 -11z"/>
<path d="M3716 4218 c3 -4 9 -8 15 -8 5 0 9 4 9 8 0 5 -7 9 -15 9 -8 0 -12 -4
-9 -9z"/>
<path d="M2816 4182 c-3 -5 1 -9 9 -9 8 0 12 4 9 9 -3 4 -7 8 -9 8 -2 0 -6 -4
-9 -8z"/>
<path d="M2850 4178 c0 -11 12 -10 30 2 12 7 10 9 -8 7 -12 0 -22 -5 -22 -9z"/>
<path d="M3230 4179 c0 -5 5 -7 10 -4 6 3 10 8 10 11 0 2 -4 4 -10 4 -5 0 -10
-5 -10 -11z"/>
<path d="M3205 4160 c3 -5 11 -10 16 -10 6 0 7 5 4 10 -3 6 -11 10 -16 10 -6
0 -7 -4 -4 -10z"/>
<path d="M2823 4147 c18 -15 23 -28 10 -26 -22 4 -24 -3 -9 -26 10 -15 12 -25
6 -25 -6 0 -8 -5 -4 -12 5 -7 2 -9 -9 -5 -11 4 -14 2 -11 -7 3 -8 1 -17 -5
-21 -6 -3 -11 -11 -11 -17 0 -6 9 1 20 15 20 25 61 34 59 12 -3 -25 2 -34 20
-32 23 1 21 25 -4 43 -12 9 -14 14 -6 14 11 0 11 3 1 15 -9 10 -9 15 -1 16 6
1 16 2 23 3 20 2 16 31 -8 49 -13 10 -24 14 -24 9 0 -6 7 -12 15 -16 8 -3 15
-10 15 -16 0 -12 -22 -9 -33 5 -5 6 -5 -1 -1 -15 6 -22 5 -23 -9 -12 -9 8 -13
20 -11 27 3 8 -5 18 -18 25 -21 10 -21 10 -5 -3z m44 -80 c-3 -10 -22 -10 -22
1 -1 4 -7 18 -14 32 l-14 25 27 -24 c14 -14 25 -29 23 -34z m27 -48 c-3 -5
-10 -7 -15 -3 -5 3 -7 10 -3 15 3 5 10 7 15 3 5 -3 7 -10 3 -15z"/>
<path d="M1260 4146 c0 -2 8 -10 18 -17 15 -13 16 -12 3 4 -13 16 -21 21 -21
13z"/>
<path d="M3795 4100 c3 -5 8 -10 11 -10 2 0 4 5 4 10 0 6 -5 10 -11 10 -5 0
-7 -4 -4 -10z"/>
<path d="M2796 4087 c3 -10 9 -15 12 -12 3 3 0 11 -7 18 -10 9 -11 8 -5 -6z"/>
<path d="M1200 4080 c-9 -6 -10 -10 -3 -10 6 0 15 5 18 10 8 12 4 12 -15 0z"/>
<path d="M2759 4068 c-5 -16 -4 -46 2 -42 4 2 7 13 6 24 -1 17 -5 26 -8 18z"/>
<path d="M1080 4026 c0 -2 8 -10 18 -17 15 -13 16 -12 3 4 -13 16 -21 21 -21
13z"/>
<path d="M2736 4007 c3 -10 9 -15 12 -12 3 3 0 11 -7 18 -10 9 -11 8 -5 -6z"/>
<path d="M1040 4001 c0 -7 -5 -9 -12 -5 -7 5 -8 3 -3 -5 5 -9 10 -10 18 -2 6
6 8 14 4 18 -4 3 -7 1 -7 -6z"/>
<path d="M3835 3991 c-6 -11 13 -26 22 -17 4 3 1 6 -6 6 -7 0 -9 5 -6 10 3 6
4 10 1 10 -3 0 -7 -4 -11 -9z"/>
<path d="M2766 3981 c3 -4 9 -6 12 -7 21 -3 41 -18 35 -27 -4 -6 -1 -7 7 -2
10 6 10 11 -3 20 -9 7 -15 14 -12 16 2 3 -7 5 -20 5 -13 0 -22 -2 -19 -5z"/>
<path d="M3816 3953 c-5 -12 -9 -13 -21 -3 -9 7 -15 8 -15 2 0 -16 23 -19 48
-7 18 10 20 14 8 18 -8 3 -17 -1 -20 -10z"/>
<path d="M2836 3945 c-3 -8 -1 -15 4 -15 6 0 10 7 10 15 0 8 -2 15 -4 15 -2 0
-6 -7 -10 -15z"/>
<path d="M2865 3950 c-3 -6 1 -7 9 -4 18 7 21 14 7 14 -6 0 -13 -4 -16 -10z"/>
<path d="M2896 3945 c-3 -8 -1 -15 4 -15 6 0 10 7 10 15 0 8 -2 15 -4 15 -2 0
-6 -7 -10 -15z"/>
<path d="M3861 3948 c-1 -12 -7 -16 -18 -12 -15 5 -16 4 -3 -5 13 -9 13 -11 0
-11 -12 0 -13 -2 -1 -9 8 -5 10 -14 6 -21 -5 -8 -4 -11 3 -6 6 3 17 -3 25 -14
13 -18 15 -19 21 -5 9 25 -11 55 -32 48 -15 -6 -15 -5 -4 10 8 9 12 22 9 29
-4 8 -6 7 -6 -4z m14 -48 c-3 -5 -1 -10 4 -10 6 0 11 -5 11 -11 0 -8 -5 -8
-15 1 -13 11 -12 30 1 30 3 0 2 -4 -1 -10z"/>
<path d="M2929 3933 c-12 -14 -12 -16 0 -9 9 6 12 5 9 -5 -3 -8 -11 -13 -17
-11 -7 1 -10 -2 -6 -8 6 -9 -8 -14 -28 -11 -5 1 -6 -3 -2 -9 3 -5 2 -10 -4
-10 -5 0 -14 12 -20 28 l-11 27 5 -28 c5 -26 4 -27 -15 -17 -16 8 -20 8 -18
-2 3 -14 -5 -14 -37 -2 -17 7 -18 6 -5 -8 16 -16 27 -17 48 -5 14 10 65 -26
54 -38 -4 -5 -2 -5 5 -1 6 3 10 14 8 24 -2 11 9 26 31 41 25 17 31 27 24 36
-5 6 -7 15 -3 18 3 4 4 7 1 7 -3 0 -12 -8 -19 -17z m-44 -81 c-3 -3 -11 0 -18
7 -9 10 -8 11 6 5 10 -3 15 -9 12 -12z"/>
<path d="M2327 3919 c7 -7 15 -10 18 -7 3 3 -2 9 -12 12 -14 6 -15 5 -6 -5z"/>
<path d="M2770 3926 c0 -2 7 -7 16 -10 8 -3 12 -2 9 4 -6 10 -25 14 -25 6z"/>
<path d="M2870 3920 c0 -6 7 -10 15 -10 8 0 15 2 15 4 0 2 -7 6 -15 10 -8 3
-15 1 -15 -4z"/>
<path d="M3895 3920 c3 -5 8 -10 11 -10 2 0 4 5 4 10 0 6 -5 10 -11 10 -5 0
-7 -4 -4 -10z"/>
<path d="M2339 3898 c-5 -19 -8 -50 -4 -46 7 7 15 48 9 48 -2 0 -4 -1 -5 -2z"/>
<path d="M2172 3873 c5 -7 15 -10 20 -7 6 4 14 1 18 -6 5 -9 9 -9 14 -1 4 6 2
11 -4 11 -6 0 -9 3 -7 8 3 4 -8 7 -23 7 -23 1 -27 -2 -18 -12z"/>
<path d="M1995 3870 c-4 -6 -10 -8 -14 -6 -4 3 -8 -1 -8 -9 0 -10 4 -12 12 -5
7 5 14 8 17 5 2 -3 5 2 5 10 0 18 -3 19 -12 5z"/>
<path d="M2028 3873 c7 -3 16 -2 19 1 4 3 -2 6 -13 5 -11 0 -14 -3 -6 -6z"/>
<path d="M2473 3865 c0 -8 4 -12 9 -9 5 3 6 10 3 15 -9 13 -12 11 -12 -6z"/>
<path d="M2690 3859 c0 -5 5 -7 10 -4 6 3 10 8 10 11 0 2 -4 4 -10 4 -5 0 -10
-5 -10 -11z"/>
<path d="M1953 3813 c0 -9 4 -10 14 -2 7 6 13 12 13 14 0 1 -6 2 -13 2 -8 0
-14 -6 -14 -14z"/>
<path d="M1910 3759 c0 -5 -5 -7 -12 -3 -7 4 -8 3 -4 -5 6 -9 11 -9 22 0 17
14 18 19 4 19 -5 0 -10 -5 -10 -11z"/>
<path d="M830 3736 c7 -7 13 -7 20 0 6 6 3 10 -10 10 -13 0 -16 -4 -10 -10z"/>
<path d="M726 3722 c-3 -5 1 -9 9 -9 8 0 12 4 9 9 -3 4 -7 8 -9 8 -2 0 -6 -4
-9 -8z"/>
<path d="M810 3701 c0 -6 4 -12 8 -15 5 -3 9 1 9 9 0 8 -4 15 -9 15 -4 0 -8
-4 -8 -9z"/>
<path d="M786 3682 c-3 -5 1 -9 9 -9 8 0 12 4 9 9 -3 4 -7 8 -9 8 -2 0 -6 -4
-9 -8z"/>
<path d="M883 3665 c-3 -9 -3 -19 1 -22 3 -4 6 2 6 13 0 15 2 16 9 4 6 -8 7
-18 4 -24 -3 -5 -1 -6 5 -2 9 5 9 13 2 27 -13 23 -19 24 -27 4z"/>
<path d="M759 3613 c-13 -17 -13 -17 6 -3 11 8 22 16 24 17 2 2 0 3 -6 3 -6 0
-17 -8 -24 -17z"/>
<path d="M790 3599 c0 -5 5 -7 10 -4 6 3 10 8 10 11 0 2 -4 4 -10 4 -5 0 -10
-5 -10 -11z"/>
<path d="M2230 3536 c-14 -8 -29 -12 -35 -9 -5 4 -6 2 -2 -3 12 -12 56 -13 54
0 -1 6 4 10 11 8 8 -1 11 2 7 8 -7 12 -4 12 -35 -4z"/>
<path d="M736 3510 c3 -39 4 -40 12 -40 13 0 12 40 -1 40 -7 0 -4 7 7 15 18
14 18 14 -1 12 -15 -1 -19 -7 -17 -27z"/>
<path d="M2531 3524 c0 -11 3 -14 6 -6 3 7 2 16 -1 19 -3 4 -6 -2 -5 -13z"/>
<path d="M3076 3523 c-4 -5 -12 -8 -17 -8 -21 0 -7 -19 15 -21 14 0 23 4 22
12 -3 19 -11 25 -20 17z"/>
<path d="M3180 3505 c-9 -10 -9 -15 -1 -15 6 0 11 5 11 11 0 5 5 7 12 3 7 -4
8 -3 4 4 -9 15 -11 15 -26 -3z"/>
<path d="M2137 3497 c-3 -8 0 -14 7 -14 7 0 13 6 13 14 0 7 -4 13 -8 13 -4 0
-9 -6 -12 -13z"/>
<path d="M3240 3500 c0 -5 5 -10 11 -10 5 0 7 5 4 10 -3 6 -8 10 -11 10 -2 0
-4 -4 -4 -10z"/>
<path d="M3405 3500 c-3 -6 1 -7 9 -4 18 7 21 14 7 14 -6 0 -13 -4 -16 -10z"/>
<path d="M3454 3499 c-4 -7 -3 -9 4 -5 5 3 13 0 15 -6 4 -9 6 -10 6 -1 1 17
-16 25 -25 12z"/>
<path d="M3140 3486 c0 -2 7 -7 16 -10 8 -3 12 -2 9 4 -6 10 -25 14 -25 6z"/>
<path d="M3196 3482 c-3 -5 1 -9 9 -9 8 0 12 4 9 9 -3 4 -7 8 -9 8 -2 0 -6 -4
-9 -8z"/>
<path d="M715 3460 c3 -5 8 -10 11 -10 2 0 4 5 4 10 0 6 -5 10 -11 10 -5 0 -7
-4 -4 -10z"/>
<path d="M2310 3460 c0 -5 5 -10 10 -10 6 0 10 5 10 10 0 6 -4 10 -10 10 -5 0
-10 -4 -10 -10z"/>
<path d="M3140 3460 c8 -5 20 -10 25 -10 6 0 3 5 -5 10 -8 5 -19 10 -25 10 -5
0 -3 -5 5 -10z"/>
<path d="M3466 3461 c9 -9 34 -9 34 -1 0 5 -9 8 -20 7 -10 -1 -17 -3 -14 -6z"/>
<path d="M2111 3446 c-6 -7 -8 -16 -5 -19 3 -3 3 -11 -1 -17 -5 -8 -10 -8 -20
0 -9 8 -15 8 -20 0 -7 -12 2 -30 16 -30 6 0 7 5 3 12 -5 7 -3 8 6 3 10 -6 10
-11 -4 -20 -15 -12 -15 -13 0 -19 21 -8 21 -8 22 7 1 26 12 60 22 72 7 8 7 16
2 19 -6 3 -15 0 -21 -8z"/>
<path d="M3236 3438 c3 -4 11 -5 19 -1 21 7 19 12 -4 10 -11 0 -18 -5 -15 -9z"/>
<path d="M3441 3436 c-9 -11 -9 -16 1 -22 7 -4 10 -4 6 1 -4 4 -3 14 3 22 6 7
9 13 6 13 -2 0 -10 -6 -16 -14z"/>
<path d="M706 3422 c-3 -5 1 -9 9 -9 8 0 12 4 9 9 -3 4 -7 8 -9 8 -2 0 -6 -4
-9 -8z"/>
<path d="M3427 3399 c7 -7 15 -10 18 -7 3 3 -2 9 -12 12 -14 6 -15 5 -6 -5z"/>
<path d="M3370 3396 c0 -2 8 -10 18 -17 15 -13 16 -12 3 4 -13 16 -21 21 -21
13z"/>
<path d="M2276 3378 c3 -5 10 -6 15 -3 13 9 11 12 -6 12 -8 0 -12 -4 -9 -9z"/>
<path d="M2256 3367 c3 -10 9 -15 12 -12 3 3 0 11 -7 18 -10 9 -11 8 -5 -6z"/>
<path d="M840 3355 c-7 -9 -11 -17 -9 -20 3 -2 10 5 17 15 14 24 10 26 -8 5z"/>
<path d="M3535 3360 c-3 -5 -1 -10 4 -10 6 0 11 5 11 10 0 6 -2 10 -4 10 -3 0
-8 -4 -11 -10z"/>
<path d="M923 3352 c-8 -5 -9 -13 -3 -22 8 -13 10 -13 10 2 0 9 6 19 13 21 6
3 8 6 2 6 -5 0 -15 -3 -22 -7z"/>
<path d="M975 3349 c-4 -6 -5 -12 -2 -15 2 -3 7 2 10 11 7 17 1 20 -8 4z"/>
<path d="M2076 3342 c-4 -7 -2 -12 3 -12 6 0 11 -5 11 -11 0 -5 -4 -7 -10 -4
-5 3 -10 1 -10 -4 0 -6 10 -9 23 -7 12 3 26 5 31 5 5 1 3 8 -4 16 -7 8 -16 13
-20 10 -5 -3 -10 0 -12 7 -3 9 -6 9 -12 0z"/>
<path d="M895 3321 c-6 -11 13 -26 22 -17 4 3 1 6 -6 6 -7 0 -9 5 -6 10 3 6 4
10 1 10 -3 0 -7 -4 -11 -9z"/>
<path d="M829 3303 c-13 -16 -12 -17 4 -4 9 7 17 15 17 17 0 8 -8 3 -21 -13z"/>
<path d="M873 3289 c-2 -23 3 -25 10 -4 4 8 3 16 -1 19 -4 3 -9 -4 -9 -15z"/>
<path d="M930 3300 c0 -5 5 -10 10 -10 6 0 10 5 10 10 0 6 -4 10 -10 10 -5 0
-10 -4 -10 -10z"/>
<path d="M2215 3300 c-3 -6 1 -7 9 -4 18 7 21 14 7 14 -6 0 -13 -4 -16 -10z"/>
<path d="M1330 3291 c0 -5 7 -15 17 -22 15 -13 15 -12 4 9 -12 23 -21 28 -21
13z"/>
<path d="M1117 3270 c10 -11 19 -20 21 -20 1 0 -2 9 -8 20 -6 11 -15 20 -20
20 -6 0 -2 -9 7 -20z"/>
<path d="M1210 3271 c-6 -12 -7 -21 -1 -21 10 0 24 30 17 37 -2 3 -9 -5 -16
-16z"/>
<path d="M1310 3283 c0 -7 5 -15 10 -18 12 -7 4 -25 -11 -25 -6 0 -8 4 -4 9 3
6 -4 15 -15 21 -13 7 -20 7 -20 0 0 -5 7 -10 15 -10 8 0 14 -5 13 -12 -4 -17
28 -22 35 -6 2 8 -1 22 -9 33 -8 10 -14 14 -14 8z"/>
<path d="M2225 3280 c-3 -6 1 -7 9 -4 18 7 21 14 7 14 -6 0 -13 -4 -16 -10z"/>
<path d="M1236 3265 c-3 -8 -1 -15 4 -15 6 0 10 7 10 15 0 8 -2 15 -4 15 -2 0
-6 -7 -10 -15z"/>
<path d="M2046 3271 c-7 -10 28 -43 37 -35 8 8 -11 44 -23 44 -5 0 -11 -4 -14
-9z m28 -17 c3 -8 2 -12 -4 -9 -6 3 -10 10 -10 16 0 14 7 11 14 -7z"/>
<path d="M2188 3273 c7 -3 16 -2 19 1 4 3 -2 6 -13 5 -11 0 -14 -3 -6 -6z"/>
<path d="M1073 3226 c0 -14 6 -27 14 -30 9 -4 11 -2 6 7 -4 6 -8 18 -9 25 -4
25 -11 23 -11 -2z"/>
<path d="M1243 3222 c-20 -27 -20 -28 -2 -27 10 1 22 5 26 10 5 4 2 4 -6 0
-11 -6 -13 -4 -8 9 4 10 7 20 7 23 0 3 8 -1 18 -8 15 -13 16 -12 3 4 -7 9 -14
17 -15 17 -1 0 -12 -13 -23 -28z"/>
<path d="M850 3238 c0 -2 9 -11 20 -21 11 -9 20 -13 20 -7 0 5 -9 14 -20 20
-11 6 -20 9 -20 8z"/>
<path d="M1200 3226 c7 -7 13 -7 20 0 6 6 3 10 -10 10 -13 0 -16 -4 -10 -10z"/>
<path d="M1153 3210 c1 -21 10 -18 13 5 1 8 -2 15 -6 15 -5 0 -8 -9 -7 -20z"/>
<path d="M2190 3221 c0 -6 4 -13 10 -16 6 -3 7 1 4 9 -7 18 -14 21 -14 7z"/>
<path d="M2236 3215 c-9 -26 -7 -32 5 -12 6 10 9 21 6 23 -2 3 -7 -2 -11 -11z"/>
<path d="M1285 3203 c15 -12 12 -37 -5 -45 -11 -6 -10 -7 5 -5 23 3 28 48 5
55 -9 2 -11 0 -5 -5z"/>
<path d="M2174 3203 c4 -7 2 -13 -3 -13 -15 0 -14 -17 2 -23 15 -6 17 27 2 40
-4 5 -5 2 -1 -4z"/>
<path d="M856 3178 c3 -5 10 -6 15 -3 13 9 11 12 -6 12 -8 0 -12 -4 -9 -9z"/>
<path d="M1260 3180 c-9 -6 -10 -10 -3 -10 6 0 15 5 18 10 8 12 4 12 -15 0z"/>
<path d="M1320 3180 c0 -5 5 -10 10 -10 6 0 10 5 10 10 0 6 -4 10 -10 10 -5 0
-10 -4 -10 -10z"/>
<path d="M2006 3181 c-7 -10 18 -34 27 -25 7 8 -3 34 -13 34 -5 0 -11 -4 -14
-9z"/>
<path d="M880 3166 c0 -2 7 -7 16 -10 8 -3 12 -2 9 4 -6 10 -25 14 -25 6z"/>
<path d="M996 3161 c-3 -5 2 -15 12 -22 15 -12 16 -12 5 2 -7 9 -10 19 -6 22
3 4 4 7 0 7 -3 0 -8 -4 -11 -9z"/>
<path d="M1028 3163 c6 -2 18 -2 25 0 6 3 1 5 -13 5 -14 0 -19 -2 -12 -5z"/>
<path d="M1343 3154 c-3 -8 -16 -19 -29 -24 -17 -7 -21 -14 -17 -31 5 -17 3
-20 -7 -14 -9 5 -11 4 -6 -4 11 -17 28 -1 23 21 -4 13 -1 18 7 15 7 -3 21 8
30 24 9 16 14 29 11 29 -3 0 -8 -7 -12 -16z"/>
<path d="M2215 3160 c3 -5 8 -10 11 -10 2 0 4 5 4 10 0 6 -5 10 -11 10 -5 0
-7 -4 -4 -10z"/>
<path d="M1397 3153 c-13 -3 -16 -10 -12 -21 4 -10 8 -23 8 -29 0 -14 11 -7
13 8 1 5 2 10 4 12 2 3 9 37 7 36 -1 -1 -10 -3 -20 -6z"/>
<path d="M2130 3140 c0 -5 5 -10 10 -10 6 0 10 5 10 10 0 6 -4 10 -10 10 -5 0
-10 -4 -10 -10z"/>
<path d="M1256 3131 c-4 -5 3 -7 14 -4 23 6 26 13 6 13 -8 0 -17 -4 -20 -9z"/>
<path d="M1342 3110 c-6 -11 -12 -23 -12 -27 0 -5 5 0 11 10 5 9 15 17 21 17
7 0 6 -6 -2 -15 -11 -13 -10 -14 4 -9 18 7 18 7 10 28 -8 21 -17 20 -32 -4z"/>
<path d="M915 3109 c-4 -6 -5 -12 -2 -15 2 -3 7 2 10 11 7 17 1 20 -8 4z"/>
<path d="M1380 3070 c8 -5 11 -12 7 -16 -3 -4 -12 -2 -20 4 -14 12 -63 10 -75
-3 -4 -5 1 -5 11 -2 11 4 24 4 30 0 7 -4 2 -10 -13 -15 l-25 -7 25 2 c14 1 24
8 23 15 -2 6 1 12 5 12 14 0 43 -36 35 -43 -10 -11 -25 -8 -18 3 3 6 1 10 -4
10 -14 0 -14 -17 -1 -25 16 -10 40 14 33 32 -5 11 -3 14 6 8 10 -6 11 -3 2 14
-7 11 -17 21 -24 21 -8 0 -7 -4 3 -10z"/>
<path d="M1269 3037 c6 -8 7 -18 3 -22 -4 -5 -1 -5 6 -1 10 6 10 11 1 22 -6 8
-14 14 -16 14 -3 0 0 -6 6 -13z"/>
<path d="M2099 3048 c-10 -33 6 -46 28 -24 4 4 1 6 -7 4 -8 -1 -14 3 -12 10 2
10 -6 19 -9 10z"/>
<path d="M1322 3007 c10 -8 15 -17 12 -20 -3 -3 5 -10 18 -17 20 -10 21 -10 6
3 -10 8 -15 17 -12 20 3 3 -5 10 -18 17 -20 10 -21 10 -6 -3z"/>
<path d="M1286 3002 c-3 -5 1 -9 9 -9 8 0 12 4 9 9 -3 4 -7 8 -9 8 -2 0 -6 -4
-9 -8z"/>
<path d="M2115 2989 c-4 -6 -5 -12 -2 -15 2 -3 7 2 10 11 7 17 1 20 -8 4z"/>
<path d="M2070 2980 c0 -5 5 -10 10 -10 6 0 10 5 10 10 0 6 -4 10 -10 10 -5 0
-10 -4 -10 -10z"/>
<path d="M2850 2979 c0 -5 5 -7 10 -4 6 3 10 8 10 11 0 2 -4 4 -10 4 -5 0 -10
-5 -10 -11z"/>
<path d="M2813 2949 c-2 -23 3 -25 10 -4 4 8 3 16 -1 19 -4 3 -9 -4 -9 -15z"/>
<path d="M1289 2943 c-13 -16 -12 -17 4 -4 9 7 17 15 17 17 0 8 -8 3 -21 -13z"/>
<path d="M2879 2958 c-5 -18 -6 -38 -1 -34 7 8 12 36 6 36 -2 0 -4 -1 -5 -2z"/>
<path d="M1356 2934 c-5 -14 -4 -15 9 -4 17 14 19 20 6 20 -5 0 -12 -7 -15
-16z"/>
<path d="M2745 2940 c-3 -6 1 -7 9 -4 18 7 21 14 7 14 -6 0 -13 -4 -16 -10z"/>
<path d="M2916 2942 c-3 -5 1 -9 9 -9 8 0 12 4 9 9 -3 4 -7 8 -9 8 -2 0 -6 -4
-9 -8z"/>
<path d="M1315 2930 c-3 -6 1 -7 9 -4 18 7 21 14 7 14 -6 0 -13 -4 -16 -10z"/>
<path d="M2706 2918 c3 -5 10 -6 15 -3 13 9 11 12 -6 12 -8 0 -12 -4 -9 -9z"/>
<path d="M2802 2904 c-7 -8 -8 -14 -3 -14 10 0 25 19 20 25 -2 1 -10 -3 -17
-11z"/>
<path d="M1345 2899 c-4 -6 -4 -13 -1 -16 3 -4 6 -1 6 6 0 7 5 9 12 5 7 -4 8
-3 4 4 -9 15 -13 15 -21 1z"/>
<path d="M2835 2900 c3 -5 8 -10 11 -10 2 0 4 5 4 10 0 6 -5 10 -11 10 -5 0
-7 -4 -4 -10z"/>
<path d="M3120 2904 c0 -2 9 -8 20 -14 15 -8 18 -8 14 3 -4 11 -34 21 -34 11z"/>
<path d="M2832 2864 c-7 -8 -8 -14 -3 -14 10 0 25 19 20 25 -2 1 -10 -3 -17
-11z"/>
<path d="M2315 2861 c-3 -5 -2 -12 3 -15 5 -3 9 1 9 9 0 17 -3 19 -12 6z"/>
<path d="M2370 2866 c0 -2 7 -7 16 -10 8 -3 12 -2 9 4 -6 10 -25 14 -25 6z"/>
<path d="M1346 2842 c-3 -4 4 -9 15 -9 23 -2 25 3 4 10 -8 4 -16 3 -19 -1z"/>
<path d="M2350 2846 c0 -2 7 -7 16 -10 8 -3 12 -2 9 4 -6 10 -25 14 -25 6z"/>
<path d="M1313 2805 c0 -8 4 -12 9 -9 5 3 6 10 3 15 -9 13 -12 11 -12 -6z"/>
<path d="M1392 2811 c-11 -7 -10 -9 3 -14 9 -4 14 -3 10 2 -3 5 1 12 7 14 7 3
9 6 3 6 -5 0 -16 -3 -23 -8z"/>
<path d="M2255 2801 c-3 -5 -2 -12 3 -15 5 -3 9 1 9 9 0 17 -3 19 -12 6z"/>
<path d="M2365 2799 c-4 -6 -12 -8 -19 -6 -6 3 -11 -6 -11 -19 0 -20 2 -22 11
-9 6 8 14 11 18 7 4 -4 6 0 4 8 -2 8 3 14 10 12 8 -1 11 2 7 8 -8 13 -12 13
-20 -1z"/>
<path d="M1420 2779 c0 -11 -4 -18 -8 -15 -4 2 -14 0 -22 -5 -11 -7 -8 -8 10
-6 17 3 26 11 28 25 2 12 1 22 -2 22 -3 0 -6 -9 -6 -21z"/>
<path d="M2806 2787 c19 -33 27 -38 35 -25 5 7 9 18 9 23 0 6 -5 3 -10 -5 -5
-8 -10 -10 -10 -4 0 7 -7 15 -16 18 -10 4 -13 2 -8 -7z"/>
<path d="M1370 2780 c0 -5 5 -10 10 -10 6 0 10 5 10 10 0 6 -4 10 -10 10 -5 0
-10 -4 -10 -10z"/>
<path d="M1341 2736 c-8 -10 -9 -16 -1 -21 6 -4 9 -1 8 7 -2 7 3 12 10 11 6
-2 12 2 12 7 0 14 -16 12 -29 -4z"/>
<path d="M2280 2740 c8 -5 20 -10 25 -10 6 0 3 5 -5 10 -8 5 -19 10 -25 10 -5
0 -3 -5 5 -10z"/>
<path d="M1391 2704 c0 -11 3 -14 6 -6 3 7 2 16 -1 19 -3 4 -6 -2 -5 -13z"/>
<path d="M2275 2710 c-4 -6 -10 -8 -14 -6 -4 3 -13 0 -21 -5 -11 -7 -10 -8 8
-6 20 3 56 27 40 27 -4 0 -10 -5 -13 -10z"/>
<path d="M1466 2695 c4 -8 8 -15 10 -15 2 0 4 7 4 15 0 8 -4 15 -10 15 -5 0
-7 -7 -4 -15z"/>
<path d="M3310 2703 c0 -6 8 -17 18 -24 16 -13 16 -13 2 6 -8 11 -16 22 -17
24 -2 2 -3 0 -3 -6z"/>
<path d="M1373 2667 c0 -8 12 -13 29 -13 15 0 28 4 28 9 0 5 -7 6 -16 3 -9 -4
-22 -2 -29 4 -8 7 -12 6 -12 -3z"/>
<path d="M1510 2665 c-7 -9 -10 -18 -6 -22 3 -3 6 -1 6 6 0 7 4 10 8 7 5 -3 9
1 9 9 0 19 -2 19 -17 0z"/>
<path d="M2271 2664 c0 -11 3 -14 6 -6 3 7 2 16 -1 19 -3 4 -6 -2 -5 -13z"/>
<path d="M1468 2652 c9 -10 19 -17 21 -16 6 5 -20 34 -30 34 -5 0 -1 -8 9 -18z"/>
<path d="M1441 2632 c-7 -14 -6 -19 4 -19 7 0 11 7 7 15 -4 11 -1 13 8 7 9 -5
11 -4 6 3 -10 16 -14 15 -25 -6z"/>
<path d="M2253 2643 c4 -3 1 -13 -6 -22 -11 -14 -10 -14 5 -2 16 12 16 31 1
31 -4 0 -3 -3 0 -7z"/>
<path d="M3350 2630 c6 -11 16 -20 23 -19 9 0 9 2 -1 6 -6 2 -10 8 -7 13 3 4
-2 11 -10 14 -13 4 -14 2 -5 -14z"/>
<path d="M1535 2623 c5 -19 3 -22 -12 -17 -15 5 -15 4 -3 -5 21 -14 35 3 21
26 -11 16 -11 16 -6 -4z"/>
<path d="M2073 2611 c0 -11 5 -18 9 -15 4 3 5 11 1 19 -7 21 -12 19 -10 -4z"/>
<path d="M2270 2607 c-12 -21 -12 -21 6 -7 10 8 20 15 22 16 2 1 -1 4 -5 7 -5
3 -15 -4 -23 -16z"/>
<path d="M2356 2618 c3 -5 10 -6 15 -3 13 9 11 12 -6 12 -8 0 -12 -4 -9 -9z"/>
<path d="M2175 2600 c-3 -5 -1 -10 4 -10 6 0 11 5 11 10 0 6 -2 10 -4 10 -3 0
-8 -4 -11 -10z"/>
<path d="M2227 2599 c7 -7 15 -10 18 -7 3 3 -2 9 -12 12 -14 6 -15 5 -6 -5z"/>
<path d="M3347 2599 c7 -7 15 -10 18 -7 3 3 -2 9 -12 12 -14 6 -15 5 -6 -5z"/>
<path d="M1501 2583 c7 -12 15 -20 18 -17 3 2 -3 12 -13 22 -17 16 -18 16 -5
-5z"/>
<path d="M1473 2573 c0 -11 7 -20 14 -20 10 0 10 4 1 16 -7 9 -13 18 -15 20
-1 2 -1 -5 0 -16z"/>
<path d="M1548 2573 c-4 -14 -2 -22 6 -20 6 1 10 -4 8 -11 -1 -8 2 -11 8 -7 7
4 7 11 2 18 -5 7 -11 19 -14 27 -3 10 -6 8 -10 -7z"/>
<path d="M2115 2581 c-3 -5 -2 -12 3 -15 5 -3 9 1 9 9 0 17 -3 19 -12 6z"/>
<path d="M2276 2582 c-3 -5 1 -9 9 -9 8 0 15 4 15 9 0 4 -4 8 -9 8 -6 0 -12
-4 -15 -8z"/>
<path d="M2385 2573 c-5 -14 -3 -15 6 -6 6 6 19 9 28 6 14 -4 14 -3 1 6 -21
15 -27 14 -35 -6z"/>
<path d="M2093 2537 c-2 -17 0 -19 7 -7 8 13 14 8 12 -11 -1 -3 6 -6 13 -6 10
0 12 4 5 12 -5 7 -6 16 -2 21 4 5 3 6 -2 2 -5 -4 -14 -4 -20 2 -8 6 -12 2 -13
-13z"/>
<path d="M2015 2542 c-6 -7 7 -32 17 -32 5 0 7 4 3 9 -3 6 3 14 12 20 16 9 15
10 -5 8 -13 -1 -25 -3 -27 -5z"/>
<path d="M2250 2539 c0 -5 5 -7 10 -4 6 3 10 8 10 11 0 2 -4 4 -10 4 -5 0 -10
-5 -10 -11z"/>
<path d="M2285 2540 c-3 -5 -1 -10 4 -10 6 0 11 5 11 10 0 6 -2 10 -4 10 -3 0
-8 -4 -11 -10z"/>
<path d="M1419 2528 c-5 -18 -6 -38 -1 -34 7 8 12 36 6 36 -2 0 -4 -1 -5 -2z"/>
<path d="M1507 2519 c7 -7 15 -10 18 -7 3 3 -2 9 -12 12 -14 6 -15 5 -6 -5z"/>
<path d="M2050 2524 c0 -6 7 -17 15 -24 13 -11 18 -11 28 0 9 10 9 11 -1 5 -8
-4 -19 0 -27 11 -8 11 -15 14 -15 8z"/>
<path d="M2150 2525 c0 -7 30 -13 34 -7 3 4 -4 9 -15 9 -10 1 -19 0 -19 -2z"/>
<path d="M3455 2521 c-3 -5 -2 -12 3 -15 5 -3 9 1 9 9 0 17 -3 19 -12 6z"/>
<path d="M1515 2491 c-3 -5 -2 -12 3 -15 5 -3 9 1 9 9 0 17 -3 19 -12 6z"/>
<path d="M3426 2478 c3 -4 9 -8 15 -8 5 0 9 4 9 8 0 5 -7 9 -15 9 -8 0 -12 -4
-9 -9z"/>
<path d="M1500 2466 c0 -2 8 -10 18 -17 15 -13 16 -12 3 4 -13 16 -21 21 -21
13z"/>
<path d="M2004 2438 c-4 -7 -4 -10 1 -6 4 4 15 2 24 -5 14 -11 14 -10 2 6 -16
20 -18 21 -27 5z"/>
<path d="M3493 2395 c0 -8 4 -12 9 -9 5 3 6 10 3 15 -9 13 -12 11 -12 -6z"/>
<path d="M3494 2338 c-3 -4 -4 -8 -2 -9 26 -6 37 -5 41 5 5 13 -31 17 -39 4z"/>
<path d="M1530 2321 c0 -6 4 -13 10 -16 6 -3 7 1 4 9 -7 18 -14 21 -14 7z"/>
<path d="M3545 2320 c-3 -6 1 -7 9 -4 18 7 21 14 7 14 -6 0 -13 -4 -16 -10z"/>
<path d="M1515 2240 c-3 -5 -2 -10 4 -10 5 0 13 5 16 10 3 6 2 10 -4 10 -5 0
-13 -4 -16 -10z"/>
<path d="M2349 2163 c-13 -16 -12 -17 4 -4 9 7 17 15 17 17 0 8 -8 3 -21 -13z"/>
<path d="M3511 2067 c-13 -21 -12 -21 5 -5 10 10 16 20 13 22 -3 3 -11 -5 -18
-17z"/>
<path d="M2226 2042 c-3 -5 1 -9 9 -9 8 0 12 4 9 9 -3 4 -7 8 -9 8 -2 0 -6 -4
-9 -8z"/>
<path d="M3325 2030 c-3 -6 -9 -9 -13 -6 -4 2 -16 0 -26 -4 -19 -6 -19 -7 2
-12 13 -4 28 0 37 9 8 8 15 10 15 4 0 -6 11 -10 24 -9 14 1 22 6 20 10 -3 5
-10 6 -15 2 -5 -3 -16 -1 -24 6 -9 8 -15 8 -20 0z"/>
<path d="M3331 1984 c0 -11 3 -14 6 -6 3 7 2 16 -1 19 -3 4 -6 -2 -5 -13z"/>
<path d="M3297 1975 c-4 -8 -3 -16 1 -19 4 -3 9 4 9 15 2 23 -3 25 -10 4z"/>
<path d="M2059 1943 c-13 -16 -12 -17 4 -4 9 7 17 15 17 17 0 8 -8 3 -21 -13z"/>
<path d="M1501 1894 c0 -11 3 -14 6 -6 3 7 2 16 -1 19 -3 4 -6 -2 -5 -13z"/>
<path d="M1436 1862 c-3 -5 1 -9 9 -9 8 0 12 4 9 9 -3 4 -7 8 -9 8 -2 0 -6 -4
-9 -8z"/>
<path d="M1470 1866 c0 -2 7 -7 16 -10 8 -3 12 -2 9 4 -6 10 -25 14 -25 6z"/>
<path d="M1523 1753 c9 -2 15 -9 12 -14 -4 -5 0 -9 7 -9 9 0 9 -3 -2 -10 -8
-5 -10 -10 -4 -10 18 0 24 12 13 31 -5 11 -17 18 -27 18 -16 -1 -15 -2 1 -6z"/>
<path d="M1475 1722 c3 -3 -1 -12 -7 -21 -8 -10 -4 -9 10 3 26 23 26 23 7 23
-8 0 -13 -3 -10 -5z"/>
<path d="M1517 1699 c7 -7 15 -10 18 -7 3 3 -2 9 -12 12 -14 6 -15 5 -6 -5z"/>
<path d="M1985 1700 c-3 -6 1 -7 9 -4 18 7 21 14 7 14 -6 0 -13 -4 -16 -10z"/>
<path d="M1479 1683 c-1 -5 -1 -12 0 -17 1 -4 -4 -16 -11 -25 -12 -14 -11 -14
4 -3 9 7 16 22 15 33 -1 19 -6 26 -8 12z"/>
<path d="M1507 1679 c7 -7 15 -10 18 -7 3 3 -2 9 -12 12 -14 6 -15 5 -6 -5z"/>
<path d="M1510 1600 c0 -5 5 -10 10 -10 6 0 10 5 10 10 0 6 -4 10 -10 10 -5 0
-10 -4 -10 -10z"/>
<path d="M1992 1590 c-7 -11 -8 -20 -3 -20 9 0 24 30 18 36 -1 2 -8 -6 -15
-16z"/>
<path d="M1496 1557 c5 -14 2 -16 -12 -11 -16 5 -16 4 -4 -5 20 -14 39 4 21
22 -10 10 -11 9 -5 -6z"/>
<path d="M2047 1559 c7 -7 15 -10 18 -7 3 3 -2 9 -12 12 -14 6 -15 5 -6 -5z"/>
<path d="M2010 1515 c-8 -10 -17 -12 -23 -6 -5 5 -16 7 -24 4 -11 -4 -10 -8 4
-19 17 -13 17 -14 1 -8 -22 8 -23 -5 -2 -34 8 -12 12 -22 8 -22 -3 0 -1 -7 6
-15 9 -11 9 -15 1 -15 -7 0 -9 -4 -6 -10 3 -6 -1 -7 -10 -3 -13 5 -14 7 -3 14
7 5 11 9 8 10 -3 0 -13 2 -22 4 -21 4 -22 -4 -5 -25 14 -17 67 -24 67 -9 0 6
-5 7 -11 3 -7 -4 -10 -1 -7 7 3 8 14 12 24 11 15 -3 15 -1 -5 15 -17 14 -21
22 -13 27 7 4 12 2 12 -3 0 -6 5 -11 11 -11 8 0 8 5 -1 15 -10 12 -9 20 5 41
19 30 7 55 -15 29z m-1 -39 c-11 -20 -23 -36 -25 -36 -2 0 -8 9 -14 20 -6 11
-7 20 -3 19 21 -3 24 2 12 19 -12 15 -12 16 2 4 13 -10 19 -9 29 3 22 27 22 9
-1 -29z"/>
<path d="M1985 1469 c-4 -6 -5 -12 -2 -15 2 -3 7 2 10 11 7 17 1 20 -8 4z"/>
<path d="M1523 1500 c-11 -16 -10 -18 1 -14 15 6 30 34 18 34 -4 0 -13 -9 -19
-20z"/>
<path d="M1485 1500 c3 -5 8 -10 11 -10 2 0 4 5 4 10 0 6 -5 10 -11 10 -5 0
-7 -4 -4 -10z"/>
<path d="M1457 1473 c-10 -9 -9 -23 1 -23 5 0 9 7 9 15 0 17 -1 18 -10 8z"/>
<path d="M2030 1459 c0 -5 5 -7 10 -4 6 3 10 8 10 11 0 2 -4 4 -10 4 -5 0 -10
-5 -10 -11z"/>
<path d="M1456 1418 c3 -4 11 -5 19 -1 21 7 19 12 -4 10 -11 0 -18 -5 -15 -9z"/>
<path d="M2052 1411 c7 -9 13 -18 15 -20 1 -2 1 5 0 16 0 11 -7 20 -14 20 -10
0 -10 -4 -1 -16z"/>
<path d="M1488 1403 c10 -4 10 -8 0 -21 -11 -15 -11 -15 4 -4 11 9 18 10 23 2
9 -14 28 -13 23 3 -3 6 -10 12 -15 12 -6 0 -15 3 -19 8 -4 4 -12 7 -18 6 -6 0
-5 -3 2 -6z"/>
<path d="M2030 1390 c-9 -6 -10 -10 -3 -10 6 0 15 5 18 10 8 12 4 12 -15 0z"/>
<path d="M1496 1361 c-18 -28 33 -71 54 -46 14 17 5 50 -10 40 -6 -4 -17 -2
-25 5 -8 7 -15 7 -19 1z m42 -19 c8 8 10 5 7 -8 -3 -20 -25 -20 -37 -1 -13 20
-8 33 6 15 9 -13 16 -14 24 -6z"/>
<path d="M1457 1353 c-10 -9 -9 -23 1 -23 5 0 9 7 9 15 0 17 -1 18 -10 8z"/>
<path d="M1478 1303 c7 -3 16 -2 19 1 4 3 -2 6 -13 5 -11 0 -14 -3 -6 -6z"/>
<path d="M2015 1280 c3 -5 8 -10 11 -10 2 0 4 5 4 10 0 6 -5 10 -11 10 -5 0
-7 -4 -4 -10z"/>
<path d="M1450 1261 c0 -6 4 -13 10 -16 6 -3 7 1 4 9 -7 18 -14 21 -14 7z"/>
<path d="M2007 1259 c7 -7 15 -10 18 -7 3 3 -2 9 -12 12 -14 6 -15 5 -6 -5z"/>
<path d="M1476 1233 c-4 -10 0 -23 11 -32 15 -15 16 -15 5 0 -7 9 -10 24 -6
33 3 9 4 16 1 16 -3 0 -8 -8 -11 -17z"/>
<path d="M1462 1184 c10 -10 20 -16 22 -13 3 3 -5 11 -17 18 -21 13 -21 12 -5
-5z"/>
<path d="M1455 1129 c-4 -6 -5 -12 -2 -15 2 -3 7 2 10 11 7 17 1 20 -8 4z"/>
<path d="M1416 1118 c3 -5 10 -6 15 -3 13 9 11 12 -6 12 -8 0 -12 -4 -9 -9z"/>
<path d="M1470 1116 c0 -2 8 -10 18 -17 15 -13 16 -12 3 4 -13 16 -21 21 -21
13z"/>
<path d="M1416 1082 c-3 -5 1 -9 9 -9 8 0 12 4 9 9 -3 4 -7 8 -9 8 -2 0 -6 -4
-9 -8z"/>
<path d="M1474 1065 c0 -13 3 -22 7 -19 8 4 6 30 -2 38 -3 3 -5 -5 -5 -19z"/>
<path d="M2027 1059 c7 -7 15 -10 18 -7 3 3 -2 9 -12 12 -14 6 -15 5 -6 -5z"/>
<path d="M1499 1043 c-1 -5 -1 -12 0 -17 1 -5 -6 -5 -16 -2 -9 4 -14 4 -10 0
4 -4 2 -13 -5 -21 -7 -9 0 -7 20 4 17 10 27 20 22 21 -6 2 -8 8 -4 13 3 5 3 9
0 9 -3 0 -7 -3 -7 -7z"/>
<path d="M2035 1000 c-3 -5 -1 -10 4 -10 6 0 11 5 11 10 0 6 -2 10 -4 10 -3 0
-8 -4 -11 -10z"/>
<path d="M1416 918 c3 -5 10 -6 15 -3 13 9 11 12 -6 12 -8 0 -12 -4 -9 -9z"/>
<path d="M1446 902 c-3 -5 1 -9 9 -9 8 0 15 4 15 9 0 4 -4 8 -9 8 -6 0 -12 -4
-15 -8z"/>
<path d="M2055 900 c3 -5 8 -10 11 -10 2 0 4 5 4 10 0 6 -5 10 -11 10 -5 0 -7
-4 -4 -10z"/>
<path d="M1416 887 c3 -10 9 -15 12 -12 3 3 0 11 -7 18 -10 9 -11 8 -5 -6z"/>
<path d="M2080 870 c8 -5 20 -10 25 -10 6 0 3 5 -5 10 -8 5 -19 10 -25 10 -5
0 -3 -5 5 -10z"/>
<path d="M2150 859 c0 -5 5 -7 10 -4 6 3 10 8 10 11 0 2 -4 4 -10 4 -5 0 -10
-5 -10 -11z"/>
<path d="M2290 805 c0 -5 5 -17 10 -25 5 -8 10 -10 10 -5 0 6 -5 17 -10 25 -5
8 -10 11 -10 5z"/>
<path d="M2182 786 c7 -8 15 -12 17 -11 5 6 -10 25 -20 25 -5 0 -4 -6 3 -14z"/>
<path d="M2241 783 c7 -12 15 -20 18 -17 3 2 -3 12 -13 22 -17 16 -18 16 -5
-5z"/>
<path d="M2273 765 c0 -8 4 -12 9 -9 5 3 6 10 3 15 -9 13 -12 11 -12 -6z"/>
<path d="M1373 735 c0 -8 4 -12 9 -9 5 3 6 10 3 15 -9 13 -12 11 -12 -6z"/>
<path d="M2251 734 c0 -11 3 -14 6 -6 3 7 2 16 -1 19 -3 4 -6 -2 -5 -13z"/>
<path d="M2310 741 c0 -6 4 -12 8 -15 5 -3 9 1 9 9 0 8 -4 15 -9 15 -4 0 -8
-4 -8 -9z"/>
<path d="M2494 716 c1 -8 5 -18 8 -22 4 -3 5 1 4 10 -1 8 -5 18 -8 22 -4 3 -5
-1 -4 -10z"/>
<path d="M2409 703 c-13 -16 -12 -17 4 -4 16 13 21 21 13 21 -2 0 -10 -8 -17
-17z"/>
<path d="M2331 705 c4 -3 19 -8 35 -11 16 -3 26 -2 23 1 -4 3 -19 8 -35 11
-16 3 -26 2 -23 -1z"/>
<path d="M2434 698 c-4 -7 -4 -10 1 -6 4 4 15 2 24 -5 14 -11 14 -10 2 6 -16
20 -18 21 -27 5z"/>
<path d="M2526 702 c-3 -5 1 -9 9 -9 8 0 12 4 9 9 -3 4 -7 8 -9 8 -2 0 -6 -4
-9 -8z"/>
<path d="M2595 681 c-3 -5 -2 -12 3 -15 5 -3 9 1 9 9 0 17 -3 19 -12 6z"/>
<path d="M2493 666 c0 -15 22 -15 34 0 4 5 4 6 -1 2 -5 -4 -14 -3 -21 2 -8 7
-12 5 -12 -4z"/>
<path d="M2519 633 c-13 -16 -12 -17 4 -4 16 13 21 21 13 21 -2 0 -10 -8 -17
-17z"/>
<path d="M1240 620 c-9 -6 -10 -10 -3 -10 6 0 15 5 18 10 8 12 4 12 -15 0z"/>
<path d="M2462 614 c-7 -8 -8 -14 -3 -14 10 0 25 19 20 25 -2 1 -10 -3 -17
-11z"/>
<path d="M2539 613 c-13 -16 -12 -17 4 -4 16 13 21 21 13 21 -2 0 -10 -8 -17
-17z"/>
<path d="M2595 620 c-3 -5 -1 -10 4 -10 6 0 11 5 11 10 0 6 -2 10 -4 10 -3 0
-8 -4 -11 -10z"/>
<path d="M2650 576 c4 -4 16 -4 26 2 16 9 14 10 -8 9 -15 -1 -23 -6 -18 -11z"/>
<path d="M2747 559 c7 -7 15 -10 18 -7 3 3 -2 9 -12 12 -14 6 -15 5 -6 -5z"/>
<path d="M1130 530 c0 -5 5 -10 11 -10 5 0 7 5 4 10 -3 6 -8 10 -11 10 -2 0
-4 -4 -4 -10z"/>
<path d="M2844 522 c-17 -12 -23 -39 -8 -39 7 0 11 4 8 9 -3 5 0 15 6 23 14
16 11 19 -6 7z"/>
<path d="M1045 500 c-4 -6 -10 -8 -15 -5 -5 3 -11 1 -14 -4 -5 -8 15 -8 34 -1
3 1 8 2 13 1 4 0 7 4 7 9 0 13 -17 13 -25 0z"/>
<path d="M2970 500 c0 -5 5 -10 11 -10 5 0 7 5 4 10 -3 6 -8 10 -11 10 -2 0
-4 -4 -4 -10z"/>
<path d="M2950 471 c28 -23 40 -26 40 -11 0 6 -3 9 -7 8 -5 -1 -19 4 -33 11
l-25 12 25 -20z"/>
<path d="M1897 420 c3 -11 7 -20 9 -20 2 0 4 9 4 20 0 11 -4 20 -9 20 -5 0 -7
-9 -4 -20z"/>
<path d="M1874 422 c3 -5 0 -13 -6 -15 -9 -4 -10 -6 -1 -6 17 -1 25 16 12 25
-7 4 -9 3 -5 -4z"/>
<path d="M1735 399 c-4 -6 -5 -12 -2 -15 2 -3 7 2 10 11 7 17 1 20 -8 4z"/>
<path d="M606 373 c-6 -14 -5 -15 5 -6 7 7 10 15 7 18 -3 3 -9 -2 -12 -12z"/>
<path d="M1934 376 c1 -8 5 -18 8 -22 4 -3 5 1 4 10 -1 8 -5 18 -8 22 -4 3 -5
-1 -4 -10z"/>
<path d="M1987 367 c-3 -8 1 -14 8 -14 7 0 11 6 8 14 -3 7 -6 13 -8 13 -2 0
-5 -6 -8 -13z"/>
<path d="M437 359 c7 -7 15 -10 18 -7 3 3 -2 9 -12 12 -14 6 -15 5 -6 -5z"/>
<path d="M1460 350 c-7 -14 -7 -20 0 -20 5 0 10 7 10 15 0 8 5 15 10 15 6 0
10 -7 10 -15 0 -8 5 -15 10 -15 7 0 7 6 0 20 -6 11 -15 20 -20 20 -5 0 -14 -9
-20 -20z"/>
<path d="M2215 361 c-3 -5 -1 -13 5 -16 8 -5 7 -11 -1 -21 -8 -10 -8 -14 0
-14 6 0 11 5 11 10 0 6 13 8 31 5 22 -4 30 -2 27 7 -3 7 -9 13 -14 13 -5 1
-19 6 -31 13 -13 7 -24 8 -28 3z m45 -27 c0 -2 -9 0 -20 6 -11 6 -20 13 -20
16 0 2 9 0 20 -6 11 -6 20 -13 20 -16z"/>
<path d="M1410 345 c0 -8 4 -15 10 -15 5 0 7 7 4 15 -4 8 -8 15 -10 15 -2 0
-4 -7 -4 -15z"/>
<path d="M1570 349 c0 -5 -5 -7 -11 -3 -8 4 -8 0 0 -15 14 -25 23 -28 14 -4
-4 11 -3 14 5 9 8 -5 10 -2 6 8 -7 18 -14 21 -14 5z"/>
<path d="M1598 353 c7 -3 16 -2 19 1 4 3 -2 6 -13 5 -11 0 -14 -3 -6 -6z"/>
<path d="M1635 349 c-4 -6 -5 -12 -2 -15 2 -3 7 2 10 11 7 17 1 20 -8 4z"/>
<path d="M2031 344 c0 -11 3 -14 6 -6 3 7 2 16 -1 19 -3 4 -6 -2 -5 -13z"/>
<path d="M2960 341 c-13 -25 -13 -31 1 -31 5 0 8 4 4 9 -3 5 2 17 11 25 8 9
11 16 5 16 -6 0 -15 -9 -21 -19z"/>
<path d="M1655 341 c-3 -5 -2 -12 3 -15 5 -3 9 1 9 9 0 17 -3 19 -12 6z"/>
<path d="M2341 324 c-6 -15 -9 -29 -6 -32 3 -3 5 0 5 6 0 7 5 12 11 12 5 0 8
-4 5 -8 -3 -5 1 -9 9 -9 8 0 11 5 7 11 -3 6 -7 17 -8 24 -4 24 -10 23 -23 -4z"/>
<path d="M1209 327 c6 -6 18 -12 27 -13 12 -2 14 0 5 9 -6 6 -18 12 -27 13
-12 2 -14 0 -5 -9z"/>
<path d="M2500 320 c-16 -29 -12 -32 12 -10 25 23 38 19 17 -7 -12 -15 -11
-15 14 1 27 18 34 27 20 25 -5 -1 -10 0 -13 1 -24 9 -42 5 -50 -10z"/>
<path d="M1510 320 c-9 -6 -10 -10 -3 -10 6 0 15 5 18 10 8 12 4 12 -15 0z"/>
<path d="M1695 320 c3 -5 8 -10 11 -10 2 0 4 5 4 10 0 6 -5 10 -11 10 -5 0 -7
-4 -4 -10z"/>
<path d="M2175 320 c-3 -5 -1 -10 4 -10 6 0 11 5 11 10 0 6 -2 10 -4 10 -3 0
-8 -4 -11 -10z"/>
<path d="M2465 321 c-3 -5 0 -13 6 -17 7 -4 9 -3 5 4 -3 5 0 13 6 15 9 4 10 6
1 6 -6 1 -14 -3 -18 -8z"/>
<path d="M2577 316 c-4 -11 -1 -13 10 -9 12 5 14 3 8 -7 -5 -9 -4 -11 4 -6 9
6 9 11 0 22 -14 17 -16 17 -22 0z"/>
<path d="M1397 313 c-10 -9 -9 -23 1 -23 5 0 9 7 9 15 0 17 -1 18 -10 8z"/>
<path d="M1420 316 c0 -2 7 -7 16 -10 8 -3 12 -2 9 4 -6 10 -25 14 -25 6z"/>
<path d="M1468 313 c7 -3 16 -2 19 1 4 3 -2 6 -13 5 -11 0 -14 -3 -6 -6z"/>
<path d="M497 303 c-3 -5 1 -19 8 -33 l14 -25 -3 28 c-3 30 -11 43 -19 30z"/>
<path d="M1520 300 c-12 -7 -10 -9 8 -7 12 0 22 5 22 9 0 11 -12 10 -30 -2z"/>
<path d="M1619 308 c-5 -18 -6 -38 -1 -34 7 8 12 36 6 36 -2 0 -4 -1 -5 -2z"/>
<path d="M2270 298 c0 -3 9 -6 20 -5 11 1 20 5 20 9 0 3 -9 6 -20 5 -11 -1
-20 -5 -20 -9z"/>
<path d="M1134 288 c-4 -7 -4 -10 1 -6 4 4 15 2 24 -5 14 -11 14 -10 2 6 -16
20 -18 21 -27 5z"/>
<path d="M1313 273 c0 -9 4 -10 14 -2 7 6 13 12 13 14 0 1 -6 2 -13 2 -8 0
-14 -6 -14 -14z"/>
<path d="M1428 272 c3 -9 1 -13 -5 -9 -5 3 -10 0 -10 -8 0 -11 4 -12 13 -4 7
6 19 7 26 3 10 -6 11 -5 1 8 -7 8 -11 17 -8 20 3 2 -1 5 -9 5 -8 0 -12 -6 -8
-15z"/>
<path d="M1468 283 c6 -3 10 -9 6 -14 -8 -14 2 -11 14 4 8 10 6 13 -11 14 -12
0 -16 -1 -9 -4z"/>
<path d="M1535 271 c-3 -5 -2 -12 3 -15 5 -3 9 1 9 9 0 17 -3 19 -12 6z"/>
<path d="M2810 276 c0 -2 7 -7 16 -10 8 -3 12 -2 9 4 -6 10 -25 14 -25 6z"/>
<path d="M399 253 c-13 -16 -12 -17 4 -4 16 13 21 21 13 21 -2 0 -10 -8 -17
-17z"/>
<path d="M435 260 c3 -5 8 -10 11 -10 2 0 4 5 4 10 0 6 -5 10 -11 10 -5 0 -7
-4 -4 -10z"/>
<path d="M1339 253 c-13 -16 -12 -17 4 -4 16 13 21 21 13 21 -2 0 -10 -8 -17
-17z"/>
<path d="M1497 255 c-4 -8 -3 -16 1 -19 4 -3 9 4 9 15 2 23 -3 25 -10 4z"/>
<path d="M1236 218 c3 -5 10 -6 15 -3 13 9 11 12 -6 12 -8 0 -12 -4 -9 -9z"/>
<path d="M455 200 c-3 -5 -1 -10 4 -10 6 0 11 5 11 10 0 6 -2 10 -4 10 -3 0
-8 -4 -11 -10z"/>
<path d="M680 180 c-8 -5 0 -7 18 -7 17 1 29 4 26 6 -8 9 -31 9 -44 1z"/>
</g>
</svg>
